<?xml version="1.0" encoding="UTF-8" standalone="no"?>
<!-- Created with Inkscape (http://www.inkscape.org/) -->

<svg
   xmlns:dc="http://purl.org/dc/elements/1.1/"
   xmlns:cc="http://creativecommons.org/ns#"
   xmlns:rdf="http://www.w3.org/1999/02/22-rdf-syntax-ns#"
   xmlns:svg="http://www.w3.org/2000/svg"
   xmlns="http://www.w3.org/2000/svg"
   xmlns:sodipodi="http://sodipodi.sourceforge.net/DTD/sodipodi-0.dtd"
   xmlns:inkscape="http://www.inkscape.org/namespaces/inkscape"
   width="15in"
   height="15in"
   viewBox="0 0 381.00001 381.00001"
   version="1.1"
   id="svg8"
   sodipodi:docname="drawn_womans_face_002.svg"
   inkscape:version="0.92.2 (5c3e80d, 2017-08-06)">
  <defs
     id="defs2" />
  <sodipodi:namedview
     id="base"
     pagecolor="#ffffff"
     bordercolor="#666666"
     borderopacity="1.0"
     inkscape:pageopacity="0.0"
     inkscape:pageshadow="2"
     inkscape:zoom="0.25767182"
     inkscape:cx="66.175429"
     inkscape:cy="798.00484"
     inkscape:document-units="in"
     inkscape:current-layer="layer1"
     showgrid="false"
     showguides="false"
     inkscape:guide-bbox="true"
     inkscape:window-width="1920"
     inkscape:window-height="1147"
     inkscape:window-x="-8"
     inkscape:window-y="-8"
     inkscape:window-maximized="1"
     units="in">
    <sodipodi:guide
       position="57.958859,149.75317"
       orientation="0,1"
       id="guide4740"
       inkscape:locked="false" />
    <sodipodi:guide
       position="54.512657,218.36393"
       orientation="0,1"
       id="guide4742"
       inkscape:locked="false" />
  </sodipodi:namedview>
  <metadata
     id="metadata5">
    <rdf:RDF>
      <cc:Work
         rdf:about="">
        <dc:format>image/svg+xml</dc:format>
        <dc:type
           rdf:resource="http://purl.org/dc/dcmitype/StillImage" />
        <dc:title></dc:title>
      </cc:Work>
    </rdf:RDF>
  </metadata>
  <g
     inkscape:label="Layer 1"
     inkscape:groupmode="layer"
     id="layer1"
     transform="translate(0,84.000019)">
    <path
       style="fill:#000000;stroke-width:0.22762182"
       d="m 117.83163,-72.282827 c -0.28624,1.39e-4 -0.57263,0.0026 -0.85892,0.0071 -2.1213,0.05729 -4.23146,0.285286 -6.32228,0.63974 -1.89992,0.352071 -3.71487,0.990833 -5.44025,1.849873 -5.13182,3.144711 -9.985864,6.775724 -14.541122,10.759131 -0.344672,0.01205 -0.689421,0.02305 -1.034079,0.03513 -1.840171,0.06718 -3.681087,0.111165 -5.522054,0.148933 -1.792522,0.02563 -3.583514,0.07582 -5.374454,0.154712 -1.665193,-0.0036 -3.309133,0.169846 -4.937437,0.507257 -1.261325,0.250933 -2.457342,0.679486 -3.626389,1.204796 -9.885949,5.289725 -20.001463,12.304414 -25.115314,22.325168 -0.500406,1.090541 -0.765899,2.265119 -0.91849,3.449447 -0.0753,1.398746 0.115759,2.799997 0.363217,4.174104 0.250718,1.30249 0.667241,2.56216 1.220355,3.765542 0.564263,1.258553 1.392322,2.359417 2.239763,3.437001 0.844871,1.099552 1.789337,2.117163 2.710568,3.15203 0.594416,0.641331 1.160778,1.307446 1.708498,1.988579 -1.27171,1.382152 -2.404709,2.879594 -3.390767,4.47686 -0.99901,1.6584546 -1.9207,3.3543648 -2.675444,5.1374951 -0.729995,1.9015938 -1.376942,3.8309873 -1.86321,5.80924633 -0.505427,1.81836567 -0.738082,3.69004787 -0.751329,5.57362367 0.03232,1.7371867 0.425859,3.3644509 1.270592,4.8765309 0.95953,1.424835 2.207075,2.628288 3.497462,3.75087 1.296467,1.073653 2.63665,2.093074 3.995386,3.086232 1.451563,1.050215 2.934619,2.049509 4.508424,2.906624 1.682164,0.801012 3.419736,1.48013 5.180175,2.089498 0.190959,0.30641 0.383699,0.612164 0.578391,0.916267 1.536655,2.33015 3.255953,4.530779 4.96011,6.738851 1.647695,2.139434 3.41011,4.184072 5.217521,6.188913 0.916865,1.038197 1.880484,2.030792 2.8675,3.00043 0.01987,0.873922 0.04475,1.747691 0.07291,2.621652 -0.255974,0.133274 -0.510225,0.269946 -0.766892,0.401895 -2.448202,1.212384 -4.898947,2.419988 -7.347915,3.630835 l -20.051616,22.6866 c 2.4618,-1.214167 4.912357,-2.451442 7.380815,-3.652174 2.743868,-1.324085 5.511731,-2.628413 8.099247,-4.243902 2.118823,-1.328645 4.219365,-2.691451 6.2187,-4.195888 1.805235,-1.380225 3.59906,-2.775714 5.436695,-4.113198 0.526018,-0.375186 1.047952,-0.756679 1.570235,-1.137665 0.03115,0.349612 0.0641,0.698985 0.09825,1.048305 -0.484359,1.475658 -0.982825,2.946323 -1.484878,4.416397 -1.021015,2.82375 -1.933341,5.68405 -2.856387,8.540708 -0.908498,2.869269 -1.830105,5.735226 -2.803038,8.58339 -0.861696,2.56049 -1.756824,5.109464 -2.693228,7.643556 -0.861207,2.321639 -1.805435,4.611456 -2.757247,6.897126 -0.873931,2.19792 -1.872212,4.338345 -2.96442,6.435205 -0.960935,1.852585 -2.027348,3.644528 -3.126688,5.416691 -0.900825,0.43551 -1.808317,0.85693 -2.719459,1.26881 -2.975496,1.27586 -6.078828,2.22679 -9.192454,3.09957 -2.209903,0.55699 -1.105152,0.29305 -3.314299,0.79268 l -20.571322,22.13711 c 2.263405,-0.4508 1.133597,-0.21765 3.389432,-0.69931 3.202271,-0.72991 6.342748,-1.67614 9.449862,-2.74124 2.761487,-1.0333 5.420076,-2.29866 8.042787,-3.64418 2.357334,-1.2894 4.688662,-2.65368 6.786864,-4.34259 9.248672,-8.02828 19.884821,-15.93197 28.313578,-25.314938 1.655266,-2.017944 3.166194,-4.144131 4.47197,-6.407201 0.167154,-0.280666 0.330718,-0.563413 0.496145,-0.845128 l 4.669359,-3.114245 c 0.289993,0.415767 0.58187,0.830313 0.87759,1.24214 0.852776,1.112002 1.693873,2.232357 2.521622,3.362314 0.24488,1.955898 0.452466,3.916245 0.609511,5.882158 0.109061,1.419164 0.162356,2.841297 0.170271,4.26435 -5.3e-5,2.380071 0.798682,4.61843 1.525778,6.84956 1.225327,3.62335 2.274348,7.30022 3.331192,10.97519 0.32404,1.12254 0.668912,2.23993 1.033191,3.3512 -0.145742,0.11927 -1.148336,0.93983 -1.148336,0.93983 1.13777,2.06113 2.246814,4.13855 3.373872,6.2067 0.07333,0.76741 0.14862,1.5348 0.21962,2.30244 -0.267325,1.26139 -0.653868,2.49597 -0.942497,3.75399 l 1.212357,-0.86737 c 0.15357,1.62715 0.31222,3.25396 0.49436,4.87831 0.44641,3.6746 0.8283,7.34968 1.01363,11.04722 0.0202,3.34389 -0.29191,6.67935 -0.5446,10.01091 -0.19634,2.58913 -0.20946,5.18937 -0.2294,7.78494 -0.19834,1.92123 -0.16544,3.90999 -0.81846,5.74789 -0.1489,0.34691 -0.22797,0.71209 -0.356108,1.05986 -0.778478,0.31636 -1.558319,0.63183 -2.331344,0.9465 -6.426565,2.41559 -12.983572,4.4955 -19.827996,5.33755 -3.896675,0.44679 -7.913955,0.96785 -11.782987,0.0355 l -15.417379,15.34715 c 4.473748,0.4782 8.917429,-0.0481 13.341218,-0.7011 4.756366,-0.84877 9.511538,-1.76287 14.168125,-3.06578 2.639597,-0.73856 3.338619,-1.02056 5.911501,-1.905 4.24507,-1.67098 8.672315,-3.15316 12.514756,-5.67721 0.702034,-0.46116 1.357539,-0.98988 2.036148,-1.48488 9.135036,-8.10072 13.415926,-10.03921 18.721896,-17.22323 0.16726,-0.22647 0.33196,-0.45483 0.49659,-0.68331 0.0422,0.20301 0.0851,0.40591 0.12359,0.6095 -0.0413,0.31106 -0.0853,0.57421 -0.27564,1.72006 -0.65839,2.92137 -1.58596,5.77035 -2.80348,8.50959 -0.88575,1.94255 -1.84605,3.85405 -2.91907,5.70033 -2.99544,1.66766 -6.04456,3.2518 -9.19245,4.60757 l -9.379625,10.54351 c -1.235106,0.44761 -2.451255,0.94188 -3.624167,1.53111 -2.545145,1.26567 -5.01855,2.6754 -7.567981,3.93136 l -14.561574,16.29765 c 2.726825,-1.42496 5.402829,-2.94924 8.137037,-4.36394 2.322801,-1.2178 4.799925,-2.08232 7.263893,-2.96042 2.725464,-0.9593 5.439595,-1.95025 8.206833,-2.78082 l -11.706965,12.88554 c 2.191775,-0.84183 4.331496,-1.82224 6.379191,-2.97065 2.819838,-1.80756 5.614659,-3.65541 8.428677,-5.47314 2.605123,-1.6311 5.002878,-3.5545 7.359921,-5.51895 1.13368,-0.98795 2.26755,-1.97573 3.40099,-2.96397 1.96577,1.35332 4.4779,1.27208 7.15942,1.15456 3.61016,-0.18801 7.26896,-0.38962 10.8027,-1.16212 -0.22827,0.21409 -0.45601,0.4287 -0.6842,0.64285 -2.00657,1.96211 -4.11936,3.81855 -6.09733,5.80792 -1.73007,1.75355 -3.33573,3.62412 -5.02813,5.41491 -1.94623,2.12816 -3.95154,4.2052 -5.93328,6.30273 -1.17783,1.24362 -2.37567,2.46733 -3.58105,3.68418 l 18.0537,-11.49268 c 1.15005,-1.20637 2.30084,-2.41198 3.43389,-3.63439 1.99219,-2.13505 4.0355,-4.22091 6.01953,-6.36363 1.64891,-1.78267 3.24742,-3.61561 5.01836,-5.28065 0.45456,-0.42272 0.90502,-0.84976 1.35461,-1.27771 0.35557,-0.25839 0.70993,-0.51801 1.0612,-0.77978 0.52794,-0.45482 1.07228,-0.89095 1.58357,-1.36439 0.34572,-0.32014 0.68204,-0.64972 1.01052,-0.98651 -0.0676,0.1361 -0.13561,0.27203 -0.20051,0.40945 -0.44466,0.94151 -0.40517,1.0186 -0.91938,1.88321 -0.50123,0.84281 -1.09623,1.63563 -1.68893,2.41448 -1.22716,1.89886 -2.73358,3.57911 -4.15988,5.32377 -0.98235,1.06857 -1.71238,2.31814 -2.4994,3.52859 -4.90955,3.97675 -9.57737,8.26165 -14.11611,12.65257 -0.18487,0.21555 -0.3695,0.4313 -0.55438,0.64685 l 17.88832,-11.3962 -0.004,0.005 c -2.54132,2.22691 -6.56317,5.74397 -12.21822,10.65154 0.0693,-0.0535 0.11498,-0.0921 0.19739,-0.1547 0.23159,-0.17583 0.4679,-0.34499 0.70199,-0.51749 3.63185,-2.55466 6.90757,-5.59901 10.17229,-8.64429 l -5.8088,6.76507 c 0.95832,-0.58744 1.87707,-1.2161 2.71278,-1.97435 5.7978,-4.56591 11.63702,-9.13636 17.02985,-14.17924 -0.34464,0.93524 -0.67575,1.88038 -0.88871,2.85062 -0.14218,0.6478 -0.24018,1.30509 -0.38188,1.95301 -0.53418,1.86881 -1.38801,3.62216 -1.97169,5.47848 -0.24501,1.27126 -0.67289,2.34337 -1.2408,3.41344 l -12.82062,14.03297 c 0.69003,-0.0368 1.32254,-0.15643 1.88321,-0.59573 0.68795,-0.69087 1.6286,-1.05058 2.46072,-1.53822 0.9881,-0.65206 2.16905,-0.91125 3.24494,-1.37018 0.48658,-0.14674 0.64311,-0.13636 1.03274,-0.46991 6.44151,-5.51444 12.71687,-9.85624 18.07549,-15.88596 0.45416,-0.61131 0.90347,-1.22757 1.33595,-1.85477 -0.47896,2.39923 -1.0249,4.78553 -1.63826,7.15453 -0.375,1.44843 -0.81255,2.87957 -1.21902,4.31948 -2.29189,8.01749 -5.82705,15.58312 -9.56634,23.00804 -3.26055,6.37048 -7.10501,12.41128 -11.10412,18.33689 -2.30841,3.43453 -4.55048,6.91238 -6.82732,10.3679 -1.46824,2.17862 -2.93917,4.35598 -4.41729,6.52813 -0.97333,1.46294 -1.95847,2.91424 -3.03066,4.30658 -1.05668,1.3749 0.88789,2.86953 1.94457,1.49467 1.09836,-1.43176 2.11684,-2.91765 3.11379,-4.42173 1.48497,-2.18224 2.96212,-4.36973 4.43729,-6.55836 2.27189,-3.44803 4.50898,-6.91854 6.81221,-10.34567 4.05669,-6.01217 7.95495,-12.14161 11.2615,-18.60542 3.80867,-7.56543 7.40417,-15.27625 9.73661,-23.4455 0.4153,-1.47402 0.86221,-2.9391 1.2457,-4.42173 0.7024,-2.71561 1.31651,-5.45367 1.84498,-8.20772 -0.10064,1.12487 -0.20699,2.24542 -0.32365,3.36008 -0.0853,0.81462 -0.0809,1.6545 -0.0965,2.47273 -0.007,1.05206 0.0325,2.10258 0.0663,3.1538 l 5.85814,-22.99468 c -0.96755,9.07357 -1.61067,15.08239 -1.95123,18.2262 0.1107,-1.00032 0.20097,-1.84118 0.32009,-2.88706 0.2125,-1.5977 0.53925,-3.17972 1.06298,-4.70715 0.54632,-1.55004 1.15173,-3.07948 1.86276,-4.56221 0.73272,-1.60654 1.4808,-3.2061 2.19576,-4.82052 0.82381,-1.73041 1.72756,-3.42416 2.78258,-5.02636 1.25365,-1.86587 2.53346,-3.71419 3.93893,-5.47048 1.39852,-1.74801 2.83448,-3.46577 4.36126,-5.10415 1.39335,-1.50937 2.78472,-3.02332 4.23635,-4.47686 1.38129,-1.37835 2.75921,-2.76011 4.14387,-4.13498 0.26933,-0.27324 0.53771,-0.54732 0.80691,-0.82068 -0.81604,2.88285 -1.69188,5.74899 -2.48606,8.63807 -0.49285,1.7007 -0.84155,2.96926 -1.39952,4.64268 -0.91663,2.74914 -2.02921,5.42871 -3.13691,8.10458 -1.1361,2.6634 -2.21762,5.34843 -3.36232,8.00812 -0.35103,0.74238 -0.67729,1.51186 -1.10743,2.21398 -0.12402,0.20243 -0.28429,0.38115 -0.40589,0.58505 -0.0221,0.0371 -0.0321,0.0804 -0.048,0.12048 l 0.70954,26.31566 c 0.31509,-1.38329 0.88909,-2.6895 1.41063,-4.00605 1.23501,-2.93164 2.33687,-5.9134 3.42234,-8.9026 1.03948,-2.83635 2.21158,-5.62355 3.19871,-8.47935 0.73131,-2.11574 0.88514,-2.71952 1.5311,-4.8872 1.51297,-5.40047 3.07042,-10.78778 4.4533,-16.2234 1.40828,-5.60884 2.66876,-11.25242 3.75309,-16.93248 0.16908,-0.99565 0.34952,-1.98959 0.50726,-2.98709 0.18113,-1.14537 0.41786,-2.80062 0.60729,-4.26835 0.15767,-0.17427 0.3167,-0.34729 0.47347,-0.52238 1.58674,-1.7676 3.03849,-3.64623 4.42084,-5.57763 1.09955,-1.60298 2.17569,-3.22612 3.06757,-4.95343 0.0641,0.463 0.12031,0.92723 0.16938,1.39195 0.11355,1.20064 0.19327,2.40393 0.2903,3.60594 0.0691,1.15464 0.22573,2.29978 0.43746,3.43611 0.18445,0.9896 0.44208,1.95851 0.87937,2.86662 0.49907,0.87905 1.13898,1.3944 2.08416,1.72227 0.71718,0.20263 1.45899,0.25361 2.2002,0.25342 0.78713,0.0116 1.54939,-0.16522 2.29801,-0.38946 0.76081,-0.23719 1.50569,-0.5236 2.23709,-0.83935 0.70132,-0.30651 1.32054,-0.75392 1.913,-1.23146 0.56269,-0.47005 1.06249,-1.00593 1.53733,-1.56268 0.44686,-0.54101 0.86884,-1.10199 1.27771,-1.67205 0.20417,-0.28455 0.39303,-0.57936 0.58062,-0.87492 0.51031,-0.80471 -0.62779,-1.52674 -1.13811,-0.72199 -0.17367,0.27413 -0.34835,0.54792 -0.5375,0.81179 -0.38681,0.53973 -0.78618,1.0704 -1.20834,1.58313 -0.41997,0.49373 -0.86152,0.96952 -1.35818,1.38796 -0.49689,0.40184 -1.01293,0.78404 -1.60135,1.04341 -0.68353,0.29606 -1.38031,0.56308 -2.09128,0.78601 -0.62237,0.18916 -1.25472,0.34215 -1.91034,0.33166 -0.59675,0.002 -1.19392,-0.0327 -1.77428,-0.1845 -0.57168,-0.17535 -0.99395,-0.51053 -1.29861,-1.03541 -0.39627,-0.79222 -0.59206,-1.65712 -0.76467,-2.52208 -0.20398,-1.09026 -0.35334,-2.18895 -0.41923,-3.29695 -0.0979,-1.21318 -0.17776,-2.42756 -0.29297,-3.63928 -0.12031,-1.13359 -0.27284,-2.26507 -0.51126,-3.38055 0.87423,-1.98622 1.66788,-4.00496 2.26199,-6.09732 0.37454,-1.34948 0.6936,-2.69028 0.93627,-4.07053 0.085,-0.48332 0.18479,-0.965 0.23785,-1.45286 0.42442,-3.90203 0.74651,-6.78665 1.0283,-9.27959 0.0242,0.0257 0.0487,0.0511 0.0729,0.0769 0.61579,0.66138 1.19419,1.35641 1.77252,2.05038 0.47692,0.56159 0.94124,1.13334 1.40041,1.70938 0.45223,1.21046 0.87705,2.43072 1.27325,3.66062 0.31706,0.97643 0.55737,1.97416 0.73845,2.98398 0.12015,0.68902 0.17267,1.39006 0.0965,2.08639 -0.0583,0.235 -0.19675,0.4559 -0.41435,0.57349 -0.1585,0.0582 -0.31546,0.053 -0.47747,0.0164 -0.42499,-0.11253 -0.86092,-0.12213 -1.2946,-0.0707 -0.46928,0.0842 -0.87733,0.3121 -1.24658,0.60417 -0.37816,0.33061 -0.57378,0.77977 -0.71577,1.2497 -0.13388,0.48309 -0.16339,0.98286 -0.1676,1.48132 4.5e-4,0.50786 0.10406,1.0052 0.24763,1.48977 0.15379,0.51089 0.4387,0.96126 0.73843,1.39685 0.33573,0.47136 0.71566,0.90986 1.10699,1.3355 0.41606,0.4362 0.87539,0.82728 1.32217,1.23102 0.35517,0.29151 0.62,0.65331 0.84557,1.04875 0.16074,0.26818 0.22704,0.56067 0.24097,0.86915 -0.003,0.24587 -0.0954,0.45873 -0.21562,0.6673 -0.11949,0.1983 -0.26497,0.37734 -0.41257,0.55483 -0.60791,0.73381 0.43016,1.59362 1.03809,0.8598 0.19967,-0.24179 0.3939,-0.488 0.55216,-0.75977 0.2386,-0.43798 0.39911,-0.89804 0.38322,-1.40441 -0.036,-0.51469 -0.15167,-1.01064 -0.41835,-1.4591 -0.29861,-0.51535 -0.65034,-0.99102 -1.1101,-1.37639 -0.41636,-0.37622 -0.84441,-0.74079 -1.23458,-1.14478 -0.34952,-0.37819 -0.68752,-0.76889 -0.98874,-1.18702 -0.22072,-0.319 -0.43999,-0.64449 -0.5566,-1.01851 -0.10799,-0.35496 -0.18764,-0.7205 -0.19117,-1.09321 0.003,-0.37416 0.0169,-0.74928 0.11337,-1.11322 0.0561,-0.2053 0.12564,-0.41656 0.26896,-0.57882 0.171,-0.14337 0.36013,-0.25909 0.57796,-0.31699 0.2981,-0.0497 0.5986,-0.01 0.89003,0.0631 0.51714,0.0779 1.01594,0.0398 1.47376,-0.23873 0.52252,-0.38631 0.88236,-0.88752 0.98562,-1.544 0.0785,-0.82225 0.0379,-1.64741 -0.11114,-2.46072 -0.19271,-1.06879 -0.44605,-2.12513 -0.78201,-3.1587 -0.24829,-0.77027 -0.50863,-1.53639 -0.77844,-2.29934 0.19093,-0.22005 0.24571,-0.55882 -0.008,-0.88336 -0.097,-0.12403 -0.1938,-0.2481 -0.29075,-0.37211 -0.0952,-0.12129 -0.19274,-0.24064 -0.28853,-0.36144 -0.37707,-1.03356 -0.75688,-2.06614 -1.14745,-3.09468 -0.26951,-0.7271 -0.54034,-1.45372 -0.79312,-2.18686 0.26527,-0.23234 0.35975,-0.65921 0.007,-1.01184 -0.2531,-0.24744 -0.47267,-0.52639 -0.69264,-0.80291 -0.36913,-0.45446 -0.72578,-0.91874 -1.07943,-1.38529 -0.0354,-0.0472 -0.0689,-0.0957 -0.10403,-0.14316 0.31568,-2.68634 0.53845,-4.53419 0.66063,-5.70432 0.0453,0.1049 0.0869,0.21121 0.12271,0.32009 0.23112,0.92447 1.53861,0.59771 1.30749,-0.32676 -0.0829,-0.28866 -0.20145,-0.56467 -0.33565,-0.83269 -0.24285,-0.45815 -0.56821,-0.86303 -0.90605,-1.2537 0.0841,-1.09771 0.17441,-2.47894 0.32988,-4.85519 0.0315,-1.02249 0.0361,-2.0447 0.0156,-3.06577 0.14634,-0.86629 0.28907,-1.73332 0.42412,-2.601653 0.003,-0.0234 0.008,-0.0468 0.0111,-0.0703 0.58386,1.417583 1.1396,2.847113 1.65337,4.294583 2.10661,5.78333 4.00272,11.64625 5.27576,17.67715 0.60488,2.88112 0.8269,3.80224 1.32305,6.7184 0.78808,4.63198 1.32755,9.30465 1.67204,13.98985 0.23035,3.95836 0.37211,7.92411 0.32543,11.88747 -0.15951,0.74325 -0.32498,1.48506 -0.50148,2.22464 -1.24899,5.08357 -2.68498,10.12699 -4.85564,14.90701 -0.9633,2.20241 -1.92185,4.40823 -3.01376,6.55124 -0.7834,1.53752 -1.36541,2.54524 -2.23621,4.03318 -0.3862,0.6599 -0.78157,1.31447 -1.17233,1.97168 -2.27348,3.73194 -4.52015,7.48638 -7.05673,11.04855 -2.02209,2.81447 -4.07829,5.60853 -6.27294,8.29175 -0.85758,1.01286 -1.73539,2.03148 -2.82437,2.80393 l -0.41302,26.29298 c 1.01544,-1.33204 2.06228,-2.64185 3.09869,-3.95848 2.25559,-3.01517 4.29927,-6.18112 6.44454,-9.2747 2.62598,-3.59255 4.93168,-7.39612 7.22477,-11.20459 1.63252,-2.68857 3.23516,-5.39782 4.62801,-8.22018 0.84924,-1.7208 1.31007,-2.79253 2.09617,-4.54576 1.42846,-3.20566 2.69445,-6.48364 3.73753,-9.83531 0.70979,-2.28074 0.89427,-3.08812 1.50444,-5.40602 1.21559,-4.75779 2.08821,-9.59657 2.58875,-14.48155 0.88325,-8.61978 1.73867,-17.24234 2.60788,-25.86353 0.27686,-5.32269 0.26296,-10.66626 -0.1067,-15.98465 -0.0121,-0.17461 -0.0286,-0.34879 -0.0422,-0.52327 0.26979,-2.54601 0.53849,-5.09216 0.8078,-7.63822 0.0132,0.2586 -0.0136,0.14641 0.0574,0.34098 l 1.07765,26.29611 c 3.18754,-8.69524 3.25874,-18.43988 2.88128,-27.70363 -0.06,-1.54847 -0.19289,-3.09267 -0.33965,-4.63513 -0.24884,-3.00988 -0.48728,-6.01798 -0.81047,-9.02129 -0.27075,-3.114826 -0.71964,-6.203994 -1.29459,-9.272041 1.02138,2.10012 1.99699,4.222436 2.90529,6.375637 1.96856,4.562974 3.89553,9.154184 5.34956,13.912494 1.42712,4.76116 2.6943,9.57237 3.58948,14.4651 0.90053,4.99091 1.69065,10.00094 2.38159,15.02527 0.63951,4.78323 1.1655,9.58381 1.99213,14.34018 0.6503,3.97017 1.17176,7.95583 1.6138,11.95459 0.40431,3.44445 0.77614,6.89522 0.81002,10.36746 0.0627,2.08646 0.0791,4.17208 0.0724,6.25916 l 6.38142,-25.43896 c -0.11833,-1.67263 -0.25485,-3.34351 -0.35477,-5.01746 -0.21872,-3.34515 -0.66322,-6.67438 -1.10789,-9.99625 -0.45925,-3.91993 -1.10497,-7.81405 -1.78185,-11.70119 -0.83319,-4.58688 -1.37353,-9.21897 -2.04281,-13.83113 -0.67041,-4.84826 -1.46384,-9.67826 -2.37892,-14.486 0.29758,0.0226 0.59596,0.0363 0.8936,0.0502 1.28829,0.0506 2.57746,0.075 3.86646,0.0996 1.41044,0.0185 2.82062,0.0525 4.23056,0.0934 1.56854,0.0313 3.13563,0.10201 4.7027,0.17382 1.71524,0.0805 3.43125,0.14472 5.14728,0.2054 1.793,0.0562 3.58532,0.12576 5.37801,0.19117 1.64968,0.0594 3.29914,0.13018 4.94855,0.1965 -0.0149,0.14904 0.0185,0.30113 0.096,0.4299 -0.0811,-0.0101 -0.16179,-0.0218 -0.24318,-0.0307 -0.85257,-0.0989 -1.70966,-0.20281 -2.56964,-0.17471 -0.13149,-0.0338 -0.60896,1.82589 -0.47747,1.85965 0.28665,0.0208 0.57258,0.0481 0.85802,0.0782 -0.17994,0.0142 -0.35967,0.031 -0.53971,0.044 -1.44859,0.11989 -2.89696,0.24247 -4.34704,0.34321 -1.41525,0.0825 -2.83185,0.1472 -4.24791,0.21384 -0.82496,0.0339 -2.00897,0.0827 -2.45227,0.13915 v -4.6e-4 c -0.13393,-0.0344 -0.62028,1.85995 -0.48636,1.89434 1.17002,0.0374 2.34185,0.009 3.51213,-0.0129 1.43432,-0.0511 2.8678,-0.12191 4.30081,-0.20139 0.45316,-0.0284 0.90576,-0.0634 1.35817,-0.10092 -0.10309,0.42301 -0.17211,0.82171 -0.11203,0.83714 0.90942,0.0713 1.82233,0.0899 2.73413,0.11647 -0.56208,0.10026 -1.12555,0.19364 -1.69071,0.27653 -1.14429,0.17663 -2.29122,0.33276 -3.43922,0.48325 -1.07197,0.1398 -2.14886,0.24471 -3.22716,0.32143 -1.11836,0.0658 -2.23629,0.13422 -3.35565,0.18094 -0.71022,0.0378 -1.42025,0.0804 -2.13084,0.1107 -0.76038,0.0543 -0.68348,1.12973 0.0769,1.07542 0.70411,-0.0295 1.40757,-0.0724 2.11128,-0.10981 1.12137,-0.0468 2.2415,-0.11545 3.36187,-0.18138 1.10371,-0.078 2.20551,-0.18583 3.30273,-0.32854 1.15641,-0.1515 2.31188,-0.30902 3.46457,-0.48681 1.09305,-0.16043 2.1802,-0.3551 3.26273,-0.57483 0.62682,-0.14037 0.31424,-0.0678 0.93716,-0.21785 0.24094,-0.0581 0.37545,-0.20849 0.42368,-0.37833 0.42898,0.0327 0.85833,0.0637 1.28704,0.0991 0.23329,0.0209 0.46648,0.0418 0.69976,0.0627 0.14166,0.0488 0.83119,-1.95448 0.68954,-2.00325 -0.15236,-0.0156 -0.30467,-0.0311 -0.45703,-0.0467 0.17478,-0.016 0.34932,-0.0349 0.52416,-0.0503 0.0369,-0.0122 0.0141,-0.1672 -0.0373,-0.37923 1.4047,0.51951 2.76589,1.14848 4.12164,1.78275 1.38809,0.66655 2.7625,1.36112 4.11054,2.10551 1.04695,0.56764 2.01818,1.25396 2.9653,1.97212 0.83054,0.63458 1.64572,1.2885 2.45316,1.95212 0.1477,0.12023 0.29187,0.24457 0.43746,0.36722 -0.10408,0.68617 -0.0463,0.69152 0.72288,0.60729 0.22634,0.19094 0.45338,0.38097 0.68553,0.56506 0.32149,0.25163 0.66561,0.4712 1.00963,0.68998 0.10716,0.0935 1.42977,-1.42204 1.32261,-1.51556 -0.29945,-0.18025 -0.59711,-0.36324 -0.88426,-0.56283 -0.15122,-0.11476 -0.29853,-0.23395 -0.44413,-0.35521 0.10196,-0.0401 0.1989,-0.11597 0.27875,-0.23652 0.13708,-0.20749 0.27078,-0.41729 0.39612,-0.63218 0.24855,-0.45656 0.47446,-0.9241 0.66641,-1.40752 0.19816,-0.51257 0.38224,-1.03008 0.54905,-1.55379 0.18874,-0.54642 0.36265,-1.09702 0.51704,-1.65425 0.14908,-0.5707 0.29064,-1.14299 0.43568,-1.71473 0.11402,-0.511 0.2067,-1.02642 0.30809,-1.54001 0.0723,-0.36163 0.14177,-0.72382 0.21962,-1.0843 4.5e-4,-0.002 4.5e-4,-0.003 8.6e-4,-0.005 0.0597,0.0444 0.11888,0.0895 0.18006,0.13204 0.59069,0.35799 1.2233,0.64048 1.86187,0.90071 0.79456,0.30954 1.60633,0.57219 2.42115,0.82245 0.91095,0.27967 1.30619,-1.00871 0.39523,-1.28837 -0.777,-0.23842 -1.55107,-0.48848 -2.30912,-0.78245 -0.19554,-0.0793 -0.38953,-0.16258 -0.58239,-0.24852 0.64077,0.23017 1.29118,0.43424 1.94323,0.62952 0.64162,0.18444 1.29102,0.33956 1.94101,0.49126 1.21737,2.34148 2.33611,4.73172 3.28007,7.19943 -0.0116,0.0418 -0.024,0.0835 -0.0355,0.12536 -0.31481,1.10509 -0.54093,2.23038 -0.71665,3.36498 -0.15423,1.06358 -0.25339,2.1347 -0.31119,3.20761 -0.0397,0.9942 -0.0263,1.98962 0.0396,2.98219 0.0989,1.0576 0.2527,2.10945 0.49348,3.14403 0.30225,1.16352 0.86885,2.2242 1.46664,3.25784 0.58715,1.03371 1.29119,1.98825 2.05393,2.89729 0.83656,0.93784 1.70618,1.84527 2.56831,2.75947 0.20466,0.21856 0.41001,0.4365 0.61485,0.65485 0.16446,0.83378 0.32315,1.66862 0.47347,2.50518 0.26553,1.46364 0.59328,2.90678 0.97228,4.34349 l 0.97406,-4.37372 c 0.53581,0.50829 1.08504,1.00243 1.64449,1.48487 0.74792,0.63469 1.51126,1.2507 2.27665,1.86411 0.72979,0.60341 1.49115,1.16579 2.26733,1.70761 0.77022,0.5356 1.61453,0.94696 2.45183,1.36395 0.56978,0.27996 1.10581,0.61705 1.59201,1.02474 0.45054,0.39529 0.88323,0.81039 1.29282,1.24792 0.3921,0.42493 0.75468,0.87504 1.09366,1.34305 0.30096,0.41407 0.55875,0.85416 0.76422,1.32261 0.18468,0.4251 0.30806,0.87123 0.37611,1.32884 0.0631,0.45376 0.0479,0.90875 0.0125,1.3635 -0.034,0.42235 -0.15707,0.82865 -0.26585,1.23592 -0.13247,0.46446 -0.31264,0.91485 -0.4917,1.36306 -0.17731,0.45045 -0.37472,0.89307 -0.58817,1.32749 -0.0944,0.20397 -0.20221,0.40093 -0.31076,0.59752 -0.24885,0.45211 -0.19305,0.86736 0.0129,1.171 -0.30749,0.18685 -0.60674,0.3887 -0.9016,0.59307 -0.82561,0.57201 -1.54302,1.27449 -2.20731,2.02325 -0.56339,0.66129 -1.0808,1.36138 -1.5609,2.08506 -0.44189,0.66692 -0.75527,1.39926 -0.98785,2.16152 -0.21314,0.73449 -0.21386,1.47486 -0.0818,2.22108 0.14887,0.75159 0.53038,1.3799 1.03852,1.93923 0.53107,0.53984 1.17739,0.93358 1.8352,1.29727 0.5682,0.30843 1.15833,0.57381 1.73785,0.8598 0.54774,0.27484 1.0966,0.5466 1.64669,0.81669 0.11172,0.0544 0.22081,0.11381 0.33121,0.17072 -0.20075,0.2742 -0.39964,0.54968 -0.6024,0.82245 -0.23199,0.31668 -0.48467,0.6123 -0.76555,0.88604 -0.40442,0.35967 -0.82862,0.69684 -1.2497,1.03675 -0.4889,0.41739 -0.98886,0.8214 -1.48932,1.2248 -0.50869,0.43984 -1.04744,0.83796 -1.60225,1.2168 -0.60126,0.43143 -1.23255,0.81483 -1.87609,1.17901 -0.77753,0.43941 -1.56383,0.86338 -2.34469,1.29682 -0.76134,0.4286 -1.53844,0.8281 -2.30956,1.23858 -0.71696,0.37321 -1.43068,0.75283 -2.15307,1.11544 -0.24166,0.12096 -0.30108,0.14891 -0.36144,0.17872 -0.14975,0.0372 -0.29918,0.0756 -0.44947,0.1107 -0.72192,0.17186 -1.44129,0.35447 -2.16374,0.52415 -0.10283,0.0488 0.42016,1.2022 0.70554,1.64715 -0.009,-0.003 -0.0163,-0.005 -0.0244,-0.007 -0.72321,-0.24108 -1.0642,0.7819 -0.34099,1.02297 0.38536,0.11253 0.77364,0.21429 1.15768,0.3312 0.60563,0.19159 1.2098,0.38817 1.81475,0.58195 0.71088,0.2301 1.43141,0.42887 2.14329,0.65575 0.72958,0.21671 1.44061,0.48757 2.14818,0.76644 0.74813,0.29518 1.46867,0.65382 2.18286,1.02208 0.67491,0.35921 1.33909,0.73943 1.98547,1.14789 0.57626,0.36157 1.15545,0.71865 1.71872,1.10032 0.29456,0.19536 0.5668,0.41761 0.8309,0.64997 -0.0544,0.0963 -0.10014,0.2053 -0.13292,0.32987 -0.0672,0.19445 -0.16953,0.37511 -0.26452,0.55705 -0.11475,0.16977 -0.2641,0.31629 -0.42368,0.44413 -0.26657,0.21376 -0.56521,0.3781 -0.8727,0.52415 -0.41413,0.19198 -0.84988,0.33071 -1.28349,0.47081 -0.59168,0.17305 -1.1835,0.33889 -1.75473,0.57216 -0.54551,0.22849 -1.03677,0.55417 -1.49688,0.9216 -0.42367,0.34517 -0.77879,0.75744 -1.09232,1.20257 -0.31806,0.46851 -0.52157,0.99714 -0.69753,1.53156 -0.18815,0.57605 -0.2945,1.17263 -0.39078,1.76941 -0.10372,0.65532 -0.14627,1.31835 -0.19161,1.97968 -0.0483,0.73906 -0.0161,1.47854 0.0361,2.2162 0.0543,0.71301 0.10763,1.42605 0.16983,2.13841 0.0729,0.80217 0.17315,1.60088 0.28763,2.39802 0.11201,0.80019 0.22761,1.59995 0.34188,2.39982 0.12466,0.77988 0.25075,1.55955 0.35833,2.34201 0.11182,0.78294 0.1823,1.5709 0.22807,2.36024 0.0335,0.76312 0.0194,1.52716 -0.0298,2.28911 -0.0339,0.74698 -0.20388,1.46883 -0.42057,2.18064 -0.25275,0.76471 -0.58834,1.49625 -0.95093,2.21398 -0.34518,0.68004 -0.74976,1.32528 -1.18524,1.95034 -0.401,0.59814 -0.89303,1.12193 -1.4053,1.62448 -0.57151,0.513 -1.28129,0.83178 -1.97035,1.15366 -0.82493,0.40066 -1.71614,0.62697 -2.60387,0.83892 -1.0662,0.25707 -2.15678,0.38132 -3.24449,0.50548 -1.22058,0.15343 -2.44888,0.21066 -3.67753,0.24585 -1.38252,0.0327 -2.7654,0.0576 -4.14832,0.0636 -1.49478,0.002 -2.98948,-0.0236 -4.48308,-0.0831 -1.45384,-0.0589 -2.90615,-0.14962 -4.35771,-0.24896 -1.48055,-0.11086 -2.9597,-0.23872 -4.43729,-0.38367 -1.56252,-0.1684 -3.12401,-0.35353 -4.67692,-0.59573 -1.70276,-0.28634 -3.39107,-0.65176 -5.07659,-1.02474 -1.58149,-0.34547 -3.16191,-0.69572 -4.74093,-1.05231 -1.4727,-0.33186 -2.94059,-0.68427 -4.40973,-1.0314 -1.41363,-0.34211 -2.8317,-0.66438 -4.24969,-0.98786 -1.40187,-0.31291 -2.80336,-0.62832 -4.20922,-0.92293 -1.59058,-0.3108 -3.17342,-0.65923 -4.75383,-1.01763 -1.46604,-0.33705 -2.928,-0.68905 -4.38661,-1.05675 -1.21869,-0.32965 -2.4494,-0.61123 -3.67841,-0.89893 -0.53805,-0.12594 -0.94287,0.0711 -1.17323,0.38812 -0.46947,0.078 -0.92869,0.21125 -1.38395,0.34765 -0.7482,0.21421 -1.4431,0.54884 -2.10106,0.95939 -0.86251,0.59736 -1.59805,1.35538 -2.32868,2.10284 -0.83366,0.86186 -1.58499,1.79707 -2.32157,2.74168 -0.83075,1.04974 -1.5091,2.20497 -2.1864,3.35609 -0.73043,1.26077 -1.46411,2.51942 -2.2171,3.76687 -0.82821,1.33767 -1.65689,2.6751 -2.4736,4.01985 -0.97592,1.60924 -1.83813,3.2831 -2.68035,4.965 -0.97124,1.988 -1.89238,4.00038 -2.8017,6.01731 -0.98563,2.16007 -1.92389,4.34033 -2.81593,6.54056 -0.9082,2.2784 -1.79229,4.56625 -2.66967,6.85667 -0.84749,2.25787 -1.64821,4.53361 -2.42115,6.81798 -0.70649,2.13668 -1.35129,4.29263 -1.98235,6.45256 -0.57848,1.96168 -1.13735,3.92918 -1.68094,5.90081 -0.4903,1.7446 -0.94028,3.4999 -1.40173,5.2522 -0.38826,1.47439 1.6968,2.02345 2.08505,0.54904 0.45929,-1.7443 0.90701,-3.49155 1.39507,-5.22817 0.54063,-1.96108 1.09666,-3.91808 1.67204,-5.86928 0.62257,-2.13097 1.25905,-4.25814 1.95569,-6.36629 0.76365,-2.25748 1.55469,-4.50613 2.3918,-6.73751 0.87239,-2.27747 1.75165,-4.55243 2.65455,-6.81799 0.88151,-2.17472 1.8093,-4.32958 2.78348,-6.46455 0.89722,-1.99033 1.80562,-3.9757 2.76347,-5.93773 0.81571,-1.62956 1.65038,-3.25231 2.59542,-4.81162 0.81772,-1.34645 1.64774,-2.68523 2.47672,-4.02473 0.75711,-1.25441 1.49518,-2.5195 2.22954,-3.78732 0.62972,-1.07045 1.25649,-2.14749 2.02859,-3.12402 0.68684,-0.88162 1.38653,-1.75563 2.1633,-2.56076 0.61331,-0.62816 1.22795,-1.26789 1.93878,-1.78718 0.48756,-0.31443 1.0114,-0.55457 1.5698,-0.71665 0.43304,-0.13072 0.86895,-0.26484 1.31949,-0.31921 0.25479,-0.0425 0.45529,-0.13949 0.60685,-0.26896 1.05668,0.24671 2.11328,0.49349 3.16091,0.77711 1.4753,0.3719 2.95449,0.72786 4.43729,1.06875 1.59197,0.361 3.18588,0.71205 4.78807,1.02519 1.39339,0.29185 2.78243,0.60454 4.17188,0.9145 1.41256,0.32221 2.82546,0.6439 4.23368,0.98473 1.47609,0.34876 2.95095,0.70244 4.43062,1.03585 1.58208,0.35727 3.16527,0.70839 4.74983,1.05453 1.72995,0.38271 3.46299,0.75704 5.21085,1.04964 1.59334,0.24761 3.19464,0.43955 4.79784,0.61129 1.49862,0.14679 2.99924,0.27646 4.50087,0.38856 1.47204,0.10073 2.94469,0.19281 4.41906,0.25251 1.52517,0.0605 3.05185,0.0866 4.57823,0.0849 1.40054,-0.006 2.80061,-0.0311 4.20077,-0.0644 1.2897,-0.0372 2.57897,-0.0988 3.86024,-0.25918 1.17433,-0.13421 2.35152,-0.27184 3.50235,-0.55039 1.02923,-0.2471 2.05901,-0.51875 3.01555,-0.98295 0.91036,-0.42672 1.82976,-0.87018 2.56786,-1.5689 0.60655,-0.59757 1.18695,-1.22325 1.66404,-1.93167 0.49197,-0.70869 0.94978,-1.4395 1.33994,-2.20998 0.41774,-0.82929 0.80277,-1.67556 1.08965,-2.56031 0.26241,-0.87103 0.46429,-1.75642 0.50859,-2.66877 0.0533,-0.84951 0.0705,-1.7012 0.0307,-2.55186 -0.05,-0.84542 -0.12446,-1.68922 -0.24451,-2.52784 -0.10831,-0.7861 -0.23357,-1.56971 -0.35966,-2.35314 -0.11439,-0.80037 -0.23025,-1.60043 -0.34232,-2.40114 -0.10886,-0.75761 -0.20452,-1.51692 -0.27386,-2.27933 -0.0612,-0.7007 -0.11365,-1.40195 -0.16716,-2.10327 -0.0454,-0.63778 -0.0763,-1.27741 -0.0355,-1.91656 0.0409,-0.59598 0.0774,-1.19376 0.16938,-1.78452 0.078,-0.4861 0.1597,-0.97295 0.31165,-1.44264 0.10804,-0.33463 0.22565,-0.66993 0.41656,-0.96784 0.19223,-0.28066 0.41371,-0.53798 0.6762,-0.75623 0.29797,-0.24324 0.61698,-0.45856 0.97228,-0.61039 0.51318,-0.2201 1.05956,-0.34133 1.59024,-0.51126 0.52628,-0.17054 1.05411,-0.3422 1.55512,-0.57929 0.46818,-0.22743 0.92238,-0.48395 1.32528,-0.81667 0.36868,-0.31643 0.71178,-0.66653 0.94738,-1.09632 0.15526,-0.29739 0.30955,-0.59816 0.40945,-0.91938 0.15183,0.0903 0.26273,0.14011 0.28276,0.11292 0.36714,-0.42463 0.66607,-0.88691 0.79401,-1.44264 0.14996,-0.726 0.1717,-1.46005 0.0498,-2.19398 -0.0985,-0.67397 -0.21951,-1.34614 -0.43257,-1.9948 -0.21073,-0.62723 -0.45101,-1.2485 -0.79979,-1.81386 -0.36682,-0.56611 -0.78486,-1.09476 -1.29193,-1.54356 -0.48052,-0.44022 -0.99086,-0.8458 -1.48976,-1.26482 -0.43785,-0.33552 -0.88198,-0.66323 -1.35685,-0.94516 -0.10178,-0.0918 -1.3995,1.34775 -1.29771,1.43954 0.41571,0.28708 0.82626,0.58046 1.22658,0.8887 0.47289,0.38597 0.946,0.77224 1.40708,1.17234 0.40803,0.3455 0.75238,0.75014 1.0532,1.19012 0.28673,0.43523 0.47046,0.92389 0.63796,1.41419 0.1829,0.54932 0.28456,1.11982 0.36233,1.69205 0.0773,0.53731 0.10346,1.07986 -0.0164,1.61158 -0.0143,0.0557 -0.0346,0.1068 -0.0569,0.15649 -0.38613,-0.35475 -0.78388,-0.6961 -1.22213,-0.9874 -0.57304,-0.3879 -1.16132,-0.75163 -1.74762,-1.11899 -0.67321,-0.42459 -1.36382,-0.82142 -2.06682,-1.19457 -0.74639,-0.38472 -1.49968,-0.7592 -2.28156,-1.06742 -0.73004,-0.2876 -1.46409,-0.56643 -2.21664,-0.79045 -0.71142,-0.22636 -1.43057,-0.42555 -2.14107,-0.65486 -0.61015,-0.19539 -1.21946,-0.39369 -1.83031,-0.58684 -0.22639,-0.0686 -0.45464,-0.13091 -0.68242,-0.19472 0.63901,-0.14841 1.2768,-0.30201 1.91656,-0.44724 1.05542,-0.25121 2.10302,-0.53417 3.13691,-0.86381 1.11024,-0.34632 2.22215,-0.68766 3.33342,-1.03053 1.21998,-0.39782 2.43463,-0.81822 3.59838,-1.36306 1.15785,-0.54537 2.28172,-1.15958 3.32407,-1.90633 0.86256,-0.64646 1.6945,-1.33946 2.34646,-2.20687 0.49375,-0.6996 0.89368,-1.44651 1.01274,-2.30734 0.0686,-0.5564 0.0855,-1.11366 -0.0462,-1.66359 -0.0213,-0.12061 -1.54528,0.1349 -1.85031,0.28675 0.13654,-0.18693 0.27326,-0.37353 0.41034,-0.56016 0.16925,-0.2265 0.35282,-0.44297 0.54727,-0.64819 0.25696,-0.29978 0.16046,-0.63086 -0.0605,-0.80157 0.15193,-0.20929 0.25442,-0.3772 0.2214,-0.40456 -0.25758,-0.15808 -0.51658,-0.3134 -0.7909,-0.44146 -0.54431,-0.28106 -1.1006,-0.53921 -1.64715,-0.81579 -0.55717,-0.28705 -1.12613,-0.55032 -1.68404,-0.8358 -0.5215,-0.28345 -1.05618,-0.55323 -1.508,-0.94473 -0.32832,-0.28262 -0.55804,-0.60745 -0.6513,-1.03986 -0.10055,-0.47601 -0.0942,-0.93769 0.0529,-1.40796 0.19337,-0.6026 0.46538,-1.17571 0.82335,-1.69916 0.44864,-0.65014 0.93173,-1.2777 1.45331,-1.87121 0.58972,-0.63877 1.23115,-1.22849 1.94902,-1.72228 0.41009,-0.28127 0.82972,-0.5473 1.25191,-0.80913 0.0118,-0.007 0.0237,-0.0135 0.0351,-0.0218 0.14489,-0.0897 0.28872,-0.18073 0.43435,-0.26941 0.0269,-0.0213 -0.03,-0.13424 -0.13115,-0.28897 0.0658,-0.19115 0.12676,-0.38396 0.16538,-0.58329 0.0762,-0.40421 0.11736,-0.81037 0.12093,-1.22079 0.18241,-0.38693 0.35715,-0.77763 0.51348,-1.17591 0.20973,-0.52745 0.42013,-1.05689 0.57172,-1.60446 0.14299,-0.53537 0.29314,-1.07201 0.33254,-1.62758 0.0472,-0.62132 0.0581,-1.24399 -0.032,-1.86277 -0.10441,-0.6438 -0.27165,-1.27464 -0.53705,-1.87255 -0.27172,-0.60316 -0.59724,-1.17738 -0.98917,-1.71161 -0.39313,-0.54028 -0.81123,-1.0612 -1.26571,-1.55156 -0.47235,-0.50223 -0.96871,-0.9816 -1.48977,-1.43331 -0.61799,-0.50735 -1.28606,-0.94389 -2.00635,-1.29415 -0.74264,-0.36983 -1.49394,-0.72965 -2.17887,-1.20213 -0.7373,-0.51407 -1.46035,-1.0485 -2.15306,-1.6218 -0.74531,-0.5973 -1.48857,-1.19699 -2.21709,-1.81475 -0.76938,-0.66292 -1.51992,-1.3469 -2.23754,-2.06594 -0.0883,-0.089 -0.17376,-0.18073 -0.26141,-0.2703 l 4.19367,-18.8277 c -0.4874,-1.01164 -0.65273,-2.17624 -0.94473,-3.25918 -0.82456,-3.09918 -1.57493,-6.21708 -2.38336,-9.32049 -0.0153,-0.055 -0.0322,-0.10954 -0.0476,-0.16449 0.10178,-0.009 0.20368,-0.0132 0.30541,-0.0231 0.72063,-0.0613 1.44283,-0.10284 2.16286,-0.17027 0.75854,-0.0759 0.6514,-1.14861 -0.10714,-1.07275 -0.71478,0.0664 -1.43151,0.10807 -2.14686,0.16893 -0.1732,0.0169 -0.34677,0.0264 -0.52014,0.0392 -0.7904,-2.69333 -1.69428,-5.351116 -2.65234,-7.98945 0.29605,-1.33119 0.57291,-2.666423 0.86293,-3.998938 0.26564,-1.243112 0.53114,-2.486628 0.76511,-3.736201 0.25384,-1.354814 0.51223,-2.708681 0.76422,-4.063848 0.22474,-1.274978 0.42872,-2.553388 0.57395,-3.840229 0.13136,-1.07149 0.2889,-2.139419 0.41122,-3.212045 0.12329,-1.127332 0.24212,-2.254831 0.32677,-3.385877 0.10505,-1.164085 0.2222,-2.32706 0.33565,-3.490351 0.10944,-1.235934 0.21584,-2.471807 0.31476,-3.708633 0.10675,-1.257533 0.22129,-2.515078 0.28453,-3.775768 0.0378,-0.868636 0.0681,-1.73765 0.0791,-2.606981 0.82132,1.129123 1.58817,2.30032 2.31534,3.496574 1.66813,2.860849 2.99838,5.895475 4.08341,9.019516 0.97623,2.806337 1.53469,5.712561 1.93035,8.648741 0.38175,3.006681 0.63805,6.026939 0.8678,9.048409 0.22218,2.864912 0.37423,5.733722 0.47525,8.605172 0.0118,0.266195 0.0185,0.532346 0.0249,0.798456 -0.011,0.0486 -0.0209,0.0973 -0.032,0.14582 -0.27372,1.067563 -0.56771,2.130893 -0.89093,3.184483 -0.14359,0.43168 -0.26456,0.8692 -0.40411,1.30217 l 0.83802,25.92799 c 0.1396,-0.45347 0.30354,-0.89893 0.42234,-1.35862 0.34285,-1.11844 0.68689,-2.2363 0.99585,-3.36498 0.42949,-1.48807 0.82928,-2.99134 1.04075,-4.52799 0.32905,-1.98309 0.55608,-3.98085 0.80601,-5.97507 1.30374,-10.65956 2.54605,-21.336524 3.29296,-32.050222 0.13811,-2.751903 0.17328,-5.506232 0.003,-8.258407 -0.14527,-2.849819 -0.33632,-5.697464 -0.59528,-8.539375 -0.0832,-0.916355 -0.17013,-1.832536 -0.26097,-2.748356 0.0763,-0.457368 0.15271,-0.914796 0.22762,-1.372401 0.15913,-0.936557 0.32687,-1.871215 0.4877,-2.807483 0.16235,-0.920302 0.32437,-1.84098 0.51526,-2.755914 0.17215,-0.852824 0.35362,-1.703892 0.55039,-2.551409 0.20807,-0.884647 0.41223,-1.770301 0.64018,-2.650106 0.22961,-0.86669 0.47534,-1.728686 0.72243,-2.590532 0.22983,-0.793002 0.45954,-1.586271 0.68597,-2.380248 0.20066,-0.696003 0.40396,-1.391204 0.57839,-2.094388 0.18095,-0.711661 0.34498,-1.427437 0.49438,-2.146403 0.15428,-0.749092 0.28611,-1.502412 0.41523,-2.256213 0.11654,-0.72668 0.22593,-1.454411 0.31475,-2.185081 0.0937,-0.762219 0.17543,-1.526668 0.23118,-2.292667 0.0517,-0.755123 0.0841,-1.511084 0.0747,-2.268216 -0.0139,-0.770565 -0.0262,-1.541607 -0.0761,-2.310895 -0.056,-0.773714 -0.12639,-1.546544 -0.22007,-2.316675 -0.0924,-0.779663 -0.19256,-1.558091 -0.29698,-2.336236 -0.045,-0.350571 -0.0931,-0.700801 -0.14092,-1.050972 0.0334,-1.162918 0.027,-2.326478 -0.0574,-3.489016 -0.13664,-1.910329 -0.31931,-3.818465 -0.62775,-5.709663 -0.24615,-1.536383 -0.52126,-3.068222 -0.74021,-4.608898 -0.21529,-1.444319 -0.43613,-2.8878725 -0.63796,-4.3341494 -0.21417,-1.5619 -0.45718,-3.1200034 -0.74956,-4.6693618 -0.28623,-1.50214237 -0.59614,-2.9995454 -0.85091,-4.5075337 -0.33986,-1.7932776 -0.70186,-3.5832913 -1.15012,-5.3531147 -0.45702,-1.7751272 -0.92907,-3.5478914 -1.54577,-5.2757574 -0.60594,-1.711325 -1.264,-3.406668 -2.04683,-5.045914 -0.79565,-1.582853 -1.6846,-3.113191 -2.73413,-4.543546 -0.98472,-1.366178 -1.98326,-2.727461 -3.19071,-3.910027 -1.04885,-1.06547 -2.11551,-2.113266 -3.21871,-3.122687 -1.16022,-1.068045 -2.31909,-2.138835 -3.52058,-3.160476 -1.17376,-0.955695 -2.38106,-1.867162 -3.60194,-2.761693 -1.21679,-0.924086 -2.43468,-1.846562 -3.6495,-2.773254 -1.40009,-1.063233 -2.78943,-2.144991 -4.29014,-3.066225 -1.18732,-0.741314 -2.40119,-1.441875 -3.64907,-2.076606 -1.24329,-0.757709 -2.49975,-1.49397 -3.77087,-2.204196 -1.09781,-0.608376 -2.19846,-1.21164 -3.30763,-1.799191 -0.47852,-0.414067 -0.96079,-0.823541 -1.45064,-1.224355 -1.37908,-1.111821 -2.80351,-2.162884 -4.27325,-3.15114 -1.57581,-1.039549 -3.20804,-1.987954 -4.87386,-2.874616 -1.99074,-1.051497 -4.11784,-1.800079 -6.24671,-2.514509 -1.96408,-0.639007 -3.9509,-1.205654 -5.94617,-1.738284 -1.98339,-0.533061 -4.00113,-0.923138 -6.02398,-1.271038 -2.14862,-0.355425 -4.3089,-0.630742 -6.46989,-0.898039 -2.57126,-0.30692 -5.14986,-0.548284 -7.72847,-0.783784 -2.53807,-0.226242 -5.08178,-0.379887 -7.62578,-0.520152 -2.32983,-0.11639 -4.66113,-0.196683 -6.99314,-0.252517 -2.17706,-0.05824 -4.35474,-0.05536 -6.53213,-0.02267 -2.38587,0.04687 -4.76285,0.270788 -7.13586,0.507261 -2.27259,0.225475 -4.53428,0.538202 -6.78374,0.930492 -2.37807,0.406999 -4.70863,1.032782 -7.02872,1.684935 -2.19924,0.625887 -4.37821,1.320766 -6.5579,2.010806 -2.08501,0.644136 -4.16749,1.295693 -6.26583,1.895221 -2.31775,0.655334 -4.64679,1.269146 -6.9687,1.909445 -2.34124,0.652866 -4.67835,1.321098 -7.02071,1.969907 -1.10959,0.15249 -2.21931,0.304228 -3.32853,0.459243 -2.35834,0.33704 -4.71973,0.652585 -7.07095,1.038081 -1.81244,0.273519 -3.60067,0.625828 -5.36778,1.117659 -1.41953,0.395953 -2.83017,0.820841 -4.24923,1.218132 -1.15842,0.376052 -2.32029,0.775521 -3.38588,1.373735 -0.54628,0.244457 -1.08686,0.50268 -1.62358,0.769555 -0.52341,0.01816 -1.04688,0.03692 -1.57024,0.05513 -1.31695,-0.959784 -2.65679,-1.887951 -3.99716,-2.814597 -0.65974,-0.464874 -1.35599,-0.864776 -2.07038,-1.230137 -0.38855,-1.409069 -0.79857,-2.812736 -1.2497,-4.203001 -0.49382,-1.469597 -1.00639,-2.931999 -1.60135,-4.363938 -0.67124,-1.866693 -2.12775,-3.143032 -3.60372,-4.382608 -1.6588,-1.359194 -3.44447,-2.547755 -5.25531,-3.691742 -1.60651,-1.0657 -3.34099,-1.892425 -5.11304,-2.638102 -1.74411,-0.748877 -3.56555,-1.284924 -5.40336,-1.746286 -2.10028,-0.500515 -4.24885,-0.739828 -6.39519,-0.934938 -1.99544,-0.188735 -3.99764,-0.293962 -6.00131,-0.292975 z m 2.9373,289.125977 c -0.36687,0.28309 -0.6115,0.48412 -1.01719,0.84869 -0.2025,0.18199 -0.80502,0.73315 -0.59928,0.55482 0.5816,-0.5041 1.06221,-0.92252 1.61647,-1.40351 z M 72.011624,-52.56242 c -6.83e-4,0.0016 -0.009,0.009 -0.01823,0.01734 -0.0014,-9.47e-4 -0.0028,-0.0014 -0.004,-0.0022 0.0023,-0.0011 0.02258,-0.0161 0.02224,-0.01512 z m -26.103602,23.265888 c 0.0036,0.0074 0.0081,0.01484 0.01199,0.02221 -0.282898,0.265422 -0.474856,0.439893 -0.01199,-0.02221 z M 218.81126,39.287883 c 0.61535,0.0048 1.23102,0.01601 1.84632,0.03423 2.60732,0.06846 5.22277,0.180283 7.7707,0.791786 1.52914,0.176943 3.05544,0.379666 4.55955,0.714875 1.4768,0.307215 2.93414,0.688566 4.36972,1.153669 1.63647,0.512491 3.26706,1.051295 4.84097,1.736506 1.85927,0.799046 3.67982,1.688094 5.41535,2.732352 1.92155,1.193344 3.7828,2.478254 5.57096,3.864681 2.07861,1.575268 4.14306,3.168845 6.19291,4.781392 2.45214,1.910217 4.87957,3.852643 7.21766,5.902162 2.65852,2.278201 5.30511,4.5714 7.84717,6.980256 3.0088,2.831759 5.95857,5.724081 8.82879,8.696753 0.57822,0.600732 1.15271,1.205207 1.72495,1.811643 -0.17614,-0.06194 -0.35254,-0.122817 -0.52815,-0.186282 -0.89005,-0.303583 -1.78809,-0.584704 -2.66656,-0.921152 -0.56035,-0.219988 -1.12169,-0.440406 -1.6587,-0.713991 -0.84412,-0.442153 -1.4692,0.751526 -0.62507,1.193688 0.57975,0.297002 1.18556,0.53707 1.79118,0.774892 0.89707,0.344947 1.81464,0.631307 2.72391,0.941601 0.6348,0.229366 1.27354,0.447943 1.91389,0.661083 -0.58406,-0.08784 -1.16925,-0.169548 -1.75651,-0.236514 -0.50583,-0.05824 -1.01219,-0.109216 -1.51911,-0.154709 0.0773,-0.295264 -0.0337,-0.639842 -0.43302,-0.803789 -0.56813,-0.232859 -1.13754,-0.464762 -1.72761,-0.637967 -1.13126,-0.336456 -2.26777,-0.674658 -3.44189,-0.82602 -1.01956,-0.111435 -2.04416,-0.153813 -3.06578,-0.243173 -0.60356,-0.05377 -1.20868,-0.102101 -1.80675,-0.202283 -0.88476,-0.353903 -1.38535,0.897571 -0.50059,1.251474 0.71155,0.189878 1.45608,0.227748 2.1873,0.292976 1.01211,0.09104 2.0281,0.128495 3.03822,0.240515 1.0536,0.140471 2.07454,0.441869 3.09068,0.744214 -0.48552,-0.02392 -0.97124,-0.04319 -1.45732,-0.05738 -1.90467,-0.05945 -3.81155,-0.133364 -5.71677,-0.05248 -1.67524,0.07545 -3.36298,0.137881 -5.00768,0.492145 -1.32641,0.316686 -2.636,0.700235 -3.91047,1.188345 -1.09795,0.425369 -2.18219,0.898398 -3.18493,1.520887 -0.1654,0.116649 -0.3279,0.237375 -0.48725,0.361887 -0.12999,-0.131446 -0.32236,-0.213984 -0.57706,-0.19251 -0.4014,0.03407 -0.8039,0.06719 -1.20702,0.06624 -0.95292,0 -0.95292,1.347948 0,1.347948 0.1736,4.56e-4 0.34725,-0.006 0.5206,-0.01463 -0.0349,0.04207 -0.0706,0.08319 -0.10448,0.126258 -0.027,0.03854 -0.0513,0.07837 -0.0773,0.117372 -0.15255,-0.05127 -0.33371,-0.05007 -0.53305,0.03914 -0.81438,0.364562 -1.61721,0.752886 -2.42471,1.132331 -0.81549,0.380624 -1.63944,0.752043 -2.41136,1.216804 -0.57539,0.384108 -1.13024,0.798473 -1.66271,1.240359 -0.42864,0.342401 -0.8528,0.690041 -1.28926,1.022522 -0.27664,0.209011 -0.55703,0.413582 -0.8238,0.635291 -0.72351,0.620158 0.15319,1.643118 0.8767,1.022969 0.24642,-0.202834 0.50476,-0.390517 0.75933,-0.582838 0.44631,-0.339545 0.88003,-0.695306 1.31816,-1.045191 0.5029,-0.416688 1.02456,-0.810414 1.56846,-1.171896 0.71843,-0.421669 1.48024,-0.76524 2.23443,-1.117215 0.63603,-0.298603 1.27037,-0.599829 1.90855,-0.893597 0.21062,0.544821 1.10263,0.616751 1.28972,-0.131592 0.0296,-0.10586 0.0711,-0.205131 0.11825,-0.301424 0.0913,-0.03691 0.18235,-0.09565 0.26852,-0.181826 0.2159,-0.140883 0.46851,-0.191253 0.71621,-0.252963 0.55509,-0.138363 1.12137,-0.218758 1.68716,-0.297871 0.34062,-0.04766 0.5321,-0.252654 0.59573,-0.488136 0.14916,-0.07743 0.29633,-0.158872 0.44368,-0.239629 0.29537,-0.158924 0.59677,-0.305932 0.90026,-0.448571 0.61193,-0.267984 1.23969,-0.497676 1.86321,-0.737107 0.50303,-0.198584 0.25197,-0.09748 0.75445,-0.303644 0.54639,-0.224273 0.55649,-0.787668 0.27608,-1.0981 0.3011,-0.08009 0.60324,-0.156411 0.90648,-0.228505 0.37126,-0.07837 0.74482,-0.140315 1.11988,-0.191615 0.132,0.138319 0.32996,0.225124 0.59396,0.198721 0.39189,-0.03063 0.78495,-0.04405 1.17767,-0.0591 0.72896,-0.03467 1.45869,-0.03011 2.18819,-0.02538 0.89035,0.01118 1.77911,0.06702 2.66789,0.116476 0.41164,0.02288 0.65862,-0.216117 0.72999,-0.498812 0.63093,0.01669 1.262,0.03587 1.89256,0.05558 1.84611,0.05437 3.68879,0.176079 5.52338,0.388109 1.40316,0.160051 2.79625,0.387489 4.18299,0.649967 1.80453,2.017729 3.55529,4.083119 5.21708,6.223596 1.4026,1.816857 1.94793,2.485424 3.27873,4.360824 1.34044,1.888985 2.60487,3.830121 3.82734,5.797238 -0.91093,0.06125 -1.83422,0.216633 -2.74258,0.12982 -1.6263,-0.04345 -3.25051,-0.137864 -4.87652,-0.190273 -1.08441,-0.05403 -2.16647,-0.02934 -3.24629,0.04043 -1.6172,-0.121002 -3.23894,-0.133536 -4.86185,0.0052 -1.42877,0.09129 -2.85637,0.199711 -4.28658,0.266745 -0.807,0.02263 -1.62769,0.04801 -2.44872,-0.02357 -0.60478,-0.03708 -1.21248,-0.0585 -1.81164,-0.153822 -0.0439,-0.01987 -0.17213,0.190135 -0.31343,0.467248 -0.41902,-0.173059 -0.83096,-0.362825 -1.2328,-0.573057 -0.55288,-0.345584 -1.04819,0.272647 -0.77622,0.711758 -0.40163,-0.147158 -0.35484,-0.12941 -1.05053,-0.39878 -0.95217,-0.398982 -1.87103,-0.862522 -2.71546,-1.461758 -0.56605,-0.381673 -1.1292,-0.768018 -1.67027,-1.184792 -0.34256,-0.273533 -0.67863,-0.555127 -1.00739,-0.845136 -0.57881,-0.496119 -1.28036,0.322347 -0.70155,0.818467 0.33809,0.298215 0.68373,0.587673 1.03586,0.869138 0.56345,0.435305 1.1504,0.838443 1.7405,1.236359 0.90226,0.639239 1.8844,1.133682 2.9004,1.561792 0.0844,0.0327 0.0644,0.0247 0.12671,0.0489 -1.48928,-0.2624 -2.97939,-0.52018 -4.4693,-0.779343 -1.68422,-0.286093 -3.37011,-0.582606 -5.07125,-0.749109 -0.0176,-0.0077 -0.0496,0.0271 -0.0885,0.08182 -1.48078,-0.416447 -2.96671,-0.813588 -4.44974,-1.22169 -1.02461,-0.284253 -2.04696,-0.577479 -3.05423,-0.918933 -0.73018,-0.219059 -1.04006,0.813245 -0.30987,1.032295 1.01424,0.344155 2.04427,0.639265 3.07601,0.925608 1.41839,0.390372 2.83925,0.771116 4.25591,1.167902 -0.14822,0.36533 -0.25485,0.69073 -0.20229,0.71353 1.63009,0.452873 3.29902,0.749073 4.96056,1.059873 2.17622,0.40506 4.36489,0.73842 6.5508,1.08565 0.13828,0.0215 0.27625,0.045 0.41434,0.0676 -0.003,0.0193 0.002,0.0513 0.006,0.0858 -1.08858,-0.0847 -2.17677,-0.17279 -3.26451,-0.26763 -2.44438,-0.22728 -4.88966,-0.44257 -7.33591,-0.64863 -1.58036,-0.1208 -3.16264,-0.23234 -4.74805,-0.2463 -0.11391,-0.0366 -0.5833,1.37561 -0.60596,1.74318 -0.68469,-0.0255 -1.36925,-0.0477 -2.05437,-0.0613 -1.41439,-0.041 -2.82901,-0.0753 -4.2439,-0.0938 -1.27671,-0.0243 -2.55354,-0.0484 -3.82957,-0.0983 -0.40903,-0.0188 -0.81971,-0.0345 -1.22657,-0.0827 -0.93018,-4.656436 -2.22242,-9.224129 -3.69974,-13.734225 -1.66818,-4.778149 -3.59728,-9.459728 -5.53673,-14.132558 -1.75713,-4.237559 -3.85466,-8.322215 -6.0631,-12.33915 -2.16723,-3.885637 -4.49573,-7.678401 -6.84288,-11.457113 -2.01349,-3.244672 -4.10699,-6.438154 -6.19736,-9.633472 -0.41806,-0.635875 -0.83795,-1.270699 -1.25904,-1.904554 0.49885,-0.0035 0.99758,-0.0065 1.49644,-0.0027 z m 56.64138,1.708942 c 1.33041,0.191973 2.66081,0.386251 3.98961,0.589505 1.75589,0.283179 3.44395,0.829022 5.15706,1.296377 1.68636,0.446022 3.39044,0.796027 5.11615,1.053196 1.55998,0.293083 3.10658,0.641097 4.65602,0.984287 0.96663,0.183551 1.94104,0.373791 2.86795,0.70954 1.40526,0.470169 2.7851,1.0123 4.19322,1.474651 0.59734,0.270175 1.19586,0.537899 1.79563,0.802012 l -0.005,0.03823 c 0.0432,0.0046 0.0859,0.01154 0.12893,0.0169 0.78293,0.343481 1.56953,0.678173 2.36692,0.988288 1.45474,0.689643 2.86486,1.463407 4.28969,2.212644 1.75252,0.948516 3.47498,1.946057 5.15483,3.017767 0.29686,0.263086 0.58738,0.528321 1.01274,0.910488 0.67622,0.621107 1.31388,1.274839 1.92101,1.954347 0.0112,0.594123 0.0164,1.188594 0.0169,1.782742 0.006,1.145793 -0.0315,2.290717 -0.0814,3.435222 -0.0625,1.231093 -0.17449,2.458792 -0.27874,3.68685 -0.0987,1.234228 -0.20466,2.467747 -0.31387,3.701079 -0.1136,1.162055 -0.23068,2.323917 -0.33566,3.486794 -0.0834,1.117513 -0.2005,2.23159 -0.32231,3.345416 -0.12211,1.063137 -0.27818,2.121937 -0.40856,3.184042 -0.14066,1.249401 -0.33868,2.490388 -0.55706,3.728192 -0.25081,1.347587 -0.50778,2.693901 -0.76022,4.041179 -0.23066,1.231678 -0.49214,2.457085 -0.754,3.682406 -0.0505,0.231886 -0.0995,0.464177 -0.14937,0.6962 -1.86736,-4.749561 -4.44748,-9.162958 -7.05895,-13.531052 -2.70978,-4.67308 -6.00028,-8.956188 -9.32404,-13.19984 -3.26251,-4.120433 -6.78303,-8.025725 -10.31279,-11.916359 -2.83917,-3.185389 -5.82176,-6.236794 -8.87147,-9.219574 -1.02998,-0.999025 -2.07835,-1.978662 -3.13291,-2.951526 z m -9.97401,38.244026 c -0.57563,0.01815 -1.15156,0.0339 -1.72629,0.07287 -0.77479,0.04938 -1.54879,0.108442 -2.32289,0.167605 -0.95108,0.05945 -0.86704,1.404272 0.084,1.344834 0.77467,-0.05885 1.54932,-0.117775 2.32468,-0.167157 0.56033,-0.03811 1.12193,-0.05343 1.68315,-0.07115 0.95246,-0.03003 0.90976,-1.377121 -0.0427,-1.347062 z m 66.81234,2.497614 c 0.11692,-1.048838 -0.19046,1.900831 -0.56549,5.303768 0.25025,-2.358856 0.51342,-4.83664 0.56549,-5.303768 z M 69.281939,93.404974 c -0.31511,0.286843 -0.637373,0.563946 -0.962947,0.837135 0.320944,-0.279108 0.642028,-0.558001 0.962947,-0.837135 z m 218.270671,2.152625 c -1.1861,-0.0069 -2.37137,0.04869 -3.55437,0.141373 -0.23894,0.02435 -0.4777,0.04861 -0.71665,0.07287 -0.75841,0.07725 -0.64949,1.149614 0.10892,1.072316 0.23064,-0.02357 0.46156,-0.04714 0.6922,-0.07072 1.53135,-0.120528 3.06681,-0.177282 4.60268,-0.110248 1.14133,0.05661 2.27825,0.169515 3.41833,0.246288 0.99753,0.05626 1.99561,0.09682 2.99509,0.07381 0.87354,-0.02159 1.74706,-0.04551 2.61854,-0.112923 0.76233,0 0.76233,-1.078089 0,-1.078089 -0.8806,0.06444 -1.76276,0.09162 -2.64521,0.113362 -0.97041,0.02228 -1.93902,-0.01789 -2.90752,-0.07244 -1.14229,-0.07829 -2.28228,-0.189292 -3.42589,-0.246743 -0.39548,-0.01738 -0.79075,-0.0265 -1.18612,-0.02891 z m -13.03624,3.887808 c 0.32942,0.16537 0.66704,0.31427 1.0074,0.45568 -0.0595,0.172833 -0.0863,0.293943 -0.0551,0.308093 0.01,0.003 0.0202,0.004 0.0302,0.007 -0.28349,-0.055 -0.56759,-0.10747 -0.85225,-0.15694 -0.0779,-0.0143 -0.15597,-0.0272 -0.23384,-0.0413 0.13629,-0.152103 0.18409,-0.378933 0.10358,-0.572613 z m 12.26891,0.929603 c 0.44277,-0.003 0.88487,0.009 1.3266,0.0311 0.0483,0.0885 0.0909,0.15227 0.11471,0.14405 0.30331,-0.0256 0.60675,-0.0493 0.91048,-0.0712 0.55371,0.0474 1.1071,0.10608 1.66049,0.17072 0.0341,0.0126 0.10343,-0.0968 0.18449,-0.26007 0.44792,-0.0102 0.89569,-0.0132 1.34395,0.002 1.64812,0.0575 3.29614,0.13589 4.94544,0.1516 0.7277,-0.005 1.4565,-0.0159 2.18375,-0.0525 -8.6e-4,0.17185 0.0432,0.34217 0.13026,0.4917 -0.2094,0.0438 -0.39499,0.20802 -0.42235,0.50904 -0.01,0.15821 -0.0249,0.31594 -0.0409,0.47347 -1.49282,-0.23395 -2.99109,-0.43326 -4.49776,-0.56639 -2.48951,-0.24152 -4.98256,-0.46524 -7.48396,-0.53348 -2.19153,-0.0533 -4.39119,-0.0789 -6.56413,0.25963 -0.95818,0.13209 -1.91271,0.28408 -2.86661,0.44279 0.18159,-0.40776 0.31752,-0.7781 0.25918,-0.80556 -0.53376,-0.13177 -1.06969,-0.25479 -1.60713,-0.36945 0.3569,0.0565 0.71601,0.0986 1.07543,0.13649 1.2142,0.12917 2.43587,0.11645 3.6544,0.0769 1.45088,-0.0373 2.89963,-0.11886 4.35015,-0.16894 0.44859,-0.039 0.89642,-0.0582 1.3435,-0.0618 z m 15.5921,1.01274 c 0.0192,0.0321 0.0386,0.0639 0.0578,0.096 0.003,0.006 0.007,0.0125 0.0107,0.0187 -0.70553,0.0942 -1.41408,0.16373 -2.12462,0.2085 -0.0641,0.003 -0.0471,8.7e-4 -0.0951,0.003 0.003,-0.0416 0.008,-0.0829 0.0107,-0.12449 0.005,-0.0611 0.002,-0.11649 -0.007,-0.16894 0.0766,0.0135 0.15812,0.0207 0.24586,0.0187 0.63384,-0.0148 1.26767,-0.0329 1.90144,-0.0511 z m -6.81799,3.07378 c 0.07,0.0388 0.14832,0.0712 0.24185,0.0898 0.3024,0.0669 0.60937,0.10877 0.9167,0.14537 0.0367,0.31879 0.0695,0.63805 0.0943,0.95806 0.041,0.65493 -0.006,1.30887 -0.11693,1.95434 -0.0999,0.55014 -0.23556,1.09266 -0.40234,1.62581 -0.006,-0.012 -0.0113,-0.0241 -0.0174,-0.036 -0.32343,-0.60881 -0.7191,-1.16657 -1.18923,-1.67249 -0.25476,-0.29639 -0.50914,-0.59331 -0.76601,-0.88782 0.17412,-0.63611 0.38167,-1.26517 0.72688,-1.83208 0.0693,-0.11091 0.13954,-0.22117 0.21206,-0.33032 0.10004,-0.005 0.20006,-0.01 0.30009,-0.0147 z m -9.12043,0.0275 c 1.08633,0.009 2.17224,0.041 3.25827,0.0667 1.0712,0.0354 2.14285,0.0356 3.21428,0.0164 -0.25499,0.56184 -0.44002,1.15344 -0.60063,1.75028 -0.2072,0.87794 -0.35119,1.76949 -0.50414,2.65812 -0.13706,0.84354 -0.27352,1.68758 -0.42724,2.52828 -0.0219,0.12683 -0.0473,0.25292 -0.072,0.37923 -0.70886,-0.52224 -1.43306,-1.02268 -2.19397,-1.46843 -1.36542,-0.80377 -2.77008,-1.53702 -4.19944,-2.22064 -1.50539,-0.71492 -3.01846,-1.42335 -4.58979,-1.98325 -0.82248,-0.26878 -1.65369,-0.50068 -2.49761,-0.6762 0.10255,-0.012 0.20509,-0.024 0.30764,-0.036 0.5331,-0.0642 1.06724,-0.11994 1.60002,-0.18672 0.56879,-0.0745 1.13486,-0.16412 1.70005,-0.26141 0.34275,0.01 0.68551,0.0224 1.0283,0.0307 0.32004,0.008 0.53341,-0.14025 0.6433,-0.33965 0.21746,-0.0381 0.43459,-0.0776 0.65264,-0.11248 0.88792,-0.1175 1.78586,-0.13468 2.68033,-0.14492 z m 43.23881,2.08283 c -0.006,0.0803 -0.0114,0.16068 -0.0178,0.24096 -0.11222,1.19377 -0.13067,1.44972 -0.26453,2.63454 -0.0478,0.42333 -0.19529,1.69299 -0.15115,1.26926 0.20238,-1.94345 0.25473,-2.43163 0.43346,-4.14476 z m -35.83177,2.54696 c 0.22383,0.28092 0.43476,0.57105 0.61084,0.88648 0.12301,0.2328 0.21163,0.47918 0.28364,0.73088 -0.28222,0.13487 -0.56731,0.26364 -0.8558,0.38456 -0.13375,0.0579 -0.27149,0.10437 -0.41079,0.14627 0.11832,-0.66512 0.23569,-1.33014 0.34633,-1.99659 0.009,-0.0505 0.0172,-0.10106 0.0258,-0.1516 z m -243.770097,0.99007 c -0.501108,0.46629 -1.007882,0.92675 -1.52889,1.37107 -0.32725,0.27907 -1.316948,1.10641 -0.992735,0.82379 0.84,-0.73224 1.681286,-1.46302 2.521625,-2.19486 z m 245.050027,1.93434 c 0.0994,0.0834 0.25954,0.19348 0.45169,0.31209 -0.26922,-0.0674 -0.55565,-0.12694 -0.78379,-0.16093 0.11123,-0.0493 0.22178,-0.0999 0.3321,-0.15116 z m -0.77978,0.3441 c -0.14261,0.51472 -0.24553,1.03929 -0.33877,1.5649 -0.003,0.0222 -0.007,0.0445 -0.0102,0.0667 -0.38139,-0.32062 -0.76687,-0.63606 -1.15589,-0.94739 0.16787,0.0114 0.28592,0.008 0.29164,-0.0253 0.0242,-0.11489 0.0477,-0.23006 0.0716,-0.34499 0.0763,0.002 0.15658,-0.004 0.24363,-0.0275 0.30313,-0.0826 0.60703,-0.16659 0.89804,-0.28631 z m 1.925,0.3561 c 0.0757,0.0379 0.14304,0.0695 0.20406,0.0956 -0.0341,0.0907 -0.066,0.18209 -0.10092,0.27252 -0.0972,0.24333 -0.20531,0.48203 -0.3192,0.71754 0.0531,-0.29082 0.11006,-0.58078 0.17116,-0.87003 0.0759,-0.0683 0.12889,-0.12504 0.11558,-0.14537 -0.0261,-0.0113 -0.0514,-0.0256 -0.0773,-0.0378 0.003,-0.0108 0.004,-0.0217 0.007,-0.0324 z m 13.6462,4.90365 c 1.2315,3.55614 2.35481,7.15002 3.14625,10.83427 0.27351,1.22254 0.54319,2.44589 0.80823,3.67041 -0.23168,-0.25058 -0.46207,-0.50175 -0.68998,-0.75578 -0.68431,-0.81148 -1.31347,-1.6659 -1.83876,-2.59054 -0.49335,-0.84992 -0.97229,-1.71778 -1.23369,-2.67189 -0.21986,-0.91839 -0.34463,-1.85564 -0.44013,-2.79458 -0.0624,-0.90586 -0.0716,-1.81468 -0.0382,-2.72213 0.0524,-0.99346 0.14576,-1.98474 0.28631,-2.96976 z m -100.08159,2.54474 c 0.0773,0.0982 0.15472,0.19641 0.23295,0.29387 0.0111,0.0656 0.0279,0.13274 0.0587,0.20317 0.15761,0.34245 0.29004,0.69556 0.41746,1.05008 0.22603,0.67722 0.47439,1.34627 0.72331,2.01525 -0.25479,-0.29444 -0.51246,-0.58639 -0.77799,-0.87136 -0.2822,-0.30097 -0.56889,-0.59769 -0.85937,-0.89048 0.0657,-0.57553 0.14686,-1.29755 0.20495,-1.80053 z m 13.88982,22.0531 c 0.0174,-0.0803 -0.21002,2.30274 -0.30587,3.16803 -0.0824,0.74397 -0.17739,1.48649 -0.27919,2.22775 0.1868,-1.73298 0.37149,-3.4662 0.5615,-5.19884 0.0136,-0.12363 0.0211,-0.18548 0.0236,-0.19694 z M 327.65896,153.618 c -0.0529,-0.003 -0.1089,-0.002 -0.16806,0.005 -0.2934,0.0279 -0.58219,0.0887 -0.86692,0.16315 -0.32711,0.084 -0.64191,0.20658 -0.95938,0.32009 -0.38442,0.14155 -0.77265,0.2728 -1.16168,0.40101 -0.48939,0.15283 -0.97289,0.3245 -1.4453,0.52371 -0.467,0.2031 -0.90791,0.45496 -1.33328,0.73354 -0.40643,0.26505 -0.74104,0.61507 -1.04563,0.98874 -0.18516,0.23231 -0.33914,0.48616 -0.49482,0.73843 -0.50031,0.81101 0.64669,1.51877 1.147,0.70777 0.12542,-0.20335 0.24724,-0.40944 0.39479,-0.59796 0.21484,-0.26749 0.44961,-0.52074 0.73843,-0.71043 0.35695,-0.23517 0.72691,-0.44737 1.119,-0.61929 0.43774,-0.18638 0.88798,-0.34184 1.34172,-0.48458 0.39974,-0.13181 0.79862,-0.26673 1.19368,-0.41212 0.282,-0.10096 0.56137,-0.21103 0.8518,-0.28631 0.22204,-0.0606 0.44868,-0.10565 0.67798,-0.12759 0.88725,-0.10438 0.80429,-1.28735 0.0107,-1.34305 z m 2.93374,20.13786 c 0.0637,0.35784 0.0491,0.71267 -0.0125,1.06921 -0.10223,0.58305 -0.42812,1.0531 -0.78957,1.50443 -0.57728,0.70911 -1.31398,1.24862 -2.0606,1.76407 -0.97065,0.65887 -2.0071,1.19696 -3.07556,1.67561 -1.10981,0.50317 -2.26863,0.88148 -3.42455,1.26125 -0.17665,0.0564 -0.35431,0.10964 -0.53127,0.16494 0.003,-0.002 0.005,-0.003 0.007,-0.003 0.78351,-0.43495 1.57257,-0.86028 2.35269,-1.30127 0.66961,-0.37933 1.3269,-0.77804 1.95302,-1.22658 0.57821,-0.39496 1.14,-0.81015 1.67071,-1.26792 0.50069,-0.40358 1.00074,-0.80756 1.48976,-1.22524 0.44743,-0.36132 0.89924,-0.71881 1.32616,-1.10433 0.32077,-0.31411 0.61198,-0.6522 0.87759,-1.01451 0.073,-0.0983 0.14468,-0.19735 0.21695,-0.29609 z m -165.21878,8.66831 c -0.0551,0.51823 -0.0657,0.61195 -0.11914,1.1141 0.0116,-0.13036 0.0226,-0.2702 0.0347,-0.38811 0.0247,-0.24175 0.0864,-0.768 0.0831,-0.72421 3.8e-4,-6.8e-4 8.6e-4,-8.6e-4 0.002,-0.002 z m -12.97133,21.74722 c -0.66529,0.59942 -1.35748,1.22849 -2.00325,1.82586 -0.08,0.0502 -0.16151,0.098 -0.24274,0.14627 0.95629,-0.83783 1.56517,-1.37365 2.24599,-1.97213 z M 137.023,217.60463 c -0.0146,0.0129 -0.0288,0.0263 -0.0435,0.0391 -0.18153,0.18692 -0.35157,0.38559 -0.54461,0.5606 -0.1722,0.15612 -0.36601,0.28651 -0.5486,0.43035 -0.1671,0.13163 -0.66062,0.53575 -0.50014,0.39611 0.64513,-0.5614 1.02885,-0.89679 1.63691,-1.42619 z"
       id="path32"
       inkscape:connector-curvature="0" />
  </g>
  <g
     inkscape:groupmode="layer"
     id="layer2"
     inkscape:label="Layer 2"
     transform="translate(0,84.000019)">
    <path
       style="fill:#ffffff;stroke-width:0.26458332"
       id="path5064"
       d="m -6.7913747,-98.77922 c -3.2334683,0.04108 -3.6293593,-0.97009 -4.4519893,2.285698 -0.247796,0.980721 -0.164698,2.438636 0.747232,3.144901 0.183498,0.142116 0.438859,-0.152577 0.6631783,-0.212148 -2.5266943,4.453829 0.5911162,-0.90914 -1.9195263,3.030087 -0.282177,0.442741 -0.783843,0.848543 -0.771068,1.373402 0.01104,0.453618 0.62436,0.674272 0.830741,1.078373 0.329401,0.644972 0.122225,1.296726 0.0316,1.954512 -0.145898,0.374626 -0.156841,0.83621 -0.437694,1.123876 -0.3216,0.329403 -0.918058,0.274341 -1.244408,0.59904 -0.527815,0.525142 -0.05396,1.712817 0.284269,2.075561 0.223165,0.239339 1.015382,0.01058 0.926207,0.325437 -0.264639,0.934371 -1.126949,1.581875 -1.690423,2.372813 -0.344332,0.180239 -0.79241,0.845955 -1.032995,0.540718 0.112451,-0.474432 0.224903,-0.948862 0.337355,-1.423294 0.118565,0.08825 0.497063,0.22162 0.355693,0.264747 -0.338864,0.103378 -0.721515,-0.148315 -1.0617,-0.04937 -2.537517,0.738074 -3.760259,1.642116 -6.010235,2.961402 -0.608741,0.853557 -3.279932,3.790318 -2.657939,5.491491 1.901298,5.200102 2.984369,-2.310678 2.93541,-1.666373 -0.409565,5.389992 -0.168407,4.374775 -3.982971,5.897703 -0.190987,1.49714 -0.706403,2.67167 0.55198,3.954209 0.234492,0.238992 0.79119,-0.260221 1.004457,-0.0021 0.170399,0.206229 -0.308101,0.437473 -0.466778,0.652849 -0.952936,1.293447 -0.942777,1.242279 -2.133608,2.722813 0.254228,0.532998 -0.03977,1.08919 0.03625,1.625952 0.01704,0.120325 0.180717,0.185357 0.198946,0.305507 0.03115,0.205309 -0.142699,0.430403 -0.05849,0.620223 0.04656,0.104968 0.379082,-0.08646 0.343742,0.02281 -0.288253,0.891169 -0.784324,1.701152 -1.176486,2.551726 -0.198818,0.423262 0.421877,-1.322668 0.282527,-1.004112 -0.220681,0.504481 -0.558863,0.987676 -0.607459,1.536165 -0.01392,0.157054 0.388284,0.117438 0.472749,-0.01569 0.393877,-0.620837 1.402618,-2.507232 0.832961,-2.042396 -0.9825,0.801709 -1.442804,2.085785 -2.164204,3.12868 -1.301803,-0.185444 -0.08221,-0.198692 -1.111318,0.418144 -0.100701,0.06036 -0.277326,-0.121634 -0.350923,-0.03016 -0.212553,0.264183 -0.16905,0.679317 -0.38301,0.942366 -1.43051,1.758722 -0.75043,-0.06516 -1.179547,1.343443 -0.111583,0.488175 -0.825913,1.562113 -0.334754,1.464519 0.654765,-0.130101 0.702937,-1.147022 1.164431,-1.629373 0.08435,-0.08816 0.466167,-0.03669 0.364718,0.0311 -0.860896,0.575294 -1.758667,1.105778 -2.702653,1.53122 -3.845268,1.733015 -0.818522,-0.496253 -3.668032,1.90137 -2.63425,2.240531 1.666986,1.733627 1.478174,1.90043 -0.669348,0.591318 -1.324689,1.19965 -2.01875,1.761758 -0.724773,0.58698 -1.921766,1.321416 -2.695913,1.817222 -0.661739,0.574606 -1.301721,0.934167 -1.456611,1.909863 -0.02106,0.132611 0.52673,-0.09037 0.400267,-0.04524 -1.690949,0.603425 -1.295651,-0.1582 -3.9649,0.142486 -1.435367,0.161692 -2.824596,0.606092 -4.236892,0.909138 -0.980649,0.677264 -4.306202,2.414047 -4.526828,4.255764 -0.110617,0.923415 0.353193,1.870125 0.846458,2.658555 0.167965,0.268478 1.062035,-0.104598 0.932042,0.184181 -0.160612,0.356804 -0.754935,0.2109 -1.14033,0.278533 -0.548349,0.09623 -1.104421,0.141546 -1.656633,0.21232 -0.01368,0.26163 0.169185,0.628599 -0.04108,0.784886 -4.253458,3.16152 1.362146,-2.890932 -3.152267,1.296146 -0.400823,0.371761 -0.933781,2.111672 -1.17751,2.503975 -0.125034,0.201252 -0.367236,0.299463 -0.550854,0.449196 -2.132738,0.916686 -0.399397,-0.02731 -2.321317,1.7438 -0.47008,0.433195 -0.991843,0.807476 -1.506244,1.186983 -0.557458,0.411273 -1.325443,0.606598 -1.707829,1.184251 -0.350327,0.529218 -0.204746,1.252784 -0.318712,1.877134 -0.05082,0.278398 -0.117036,0.553763 -0.175557,0.830645 0.09051,0.159775 0.349118,0.312891 0.271532,0.479326 -0.295815,0.634567 -1.242272,1.256568 -1.833653,1.624829 -0.330239,0.205643 -0.748956,0.296268 -1.010131,0.584597 -0.358275,0.395521 -0.314452,1.142154 -0.783908,1.395947 -0.584433,0.315953 -1.326935,0.06926 -1.990405,0.103883 -0.974986,0.521453 -2.317707,1.070701 -3.007301,2.035839 -0.287872,0.402899 -0.295791,0.950213 -0.521327,1.391045 -0.197464,0.385967 -0.555845,0.677521 -0.738209,1.070849 -0.287324,0.61971 -0.246729,1.2140955 -0.262641,1.8625406 -2.237756,-0.1677834 -3.113487,-0.643268 -5.016574,0.4624255 -0.469461,0.272756 -0.89408,0.6652548 -1.170821,1.1323754 -0.537787,0.9077417 0.05427,1.8407091 -1.080148,2.468944 -0.707158,0.3916219 -1.559997,0.4244522 -2.339997,0.6366782 -1.869035,0.414591 -3.590168,0.7025518 -5.361437,1.4789245 -0.967367,0.4240092 -1.988754,0.8174632 -2.784813,1.5116307 -1.918732,1.67314599 -0.983623,2.05442462 -1.637194,4.0661675 -0.112985,0.3477762 -0.414224,0.6027221 -0.621337,0.904083 -0.02283,0.2975227 0.09237,0.6412759 -0.06854,0.8925684 -0.865124,1.351012 -3.54134,0.137617 -4.211603,0.1985317 -0.790448,0.071837 -1.687338,0.2890433 -2.209988,0.8863719 -0.59889,0.6844528 -0.40122,2.7129375 -0.36549,3.5997547 -0.79737,3.1475429 0.13317,1.5794949 -5.33465,0.494408 -0.0547,-0.010861 0.11453,0.022259 0.15671,0.058778 0.12911,0.1117876 0.18243,0.3306869 0.34676,0.3771512 0.77504,0.2191297 0.46934,-0.4683885 0.65759,0.1468767 -2.03073,-0.6828607 3.97294,1.279727 -2.54622,-0.0824 -0.35802,-0.074805 -0.49327,-0.6531519 -0.85768,-0.6843495 -0.20265,-0.017349 -0.007,0.4067186 -0.01,0.6100781 -0.46277,-0.2552943 -0.96307,-0.4520281 -1.38831,-0.7658827 -0.12875,-0.095027 0.31446,0.059563 0.47168,0.089344 0.31807,0.1801291 0.63614,0.3602582 0.95421,0.5403874 -6.54868,-0.8710917 -5.31677,-10.13232234 1.23191,-9.26123052 v 0 c 0.5471,0.0551956 1.0942,0.11039126 1.6413,0.16558689 2.73129,0.25007551 0.44797,-0.0584224 0.0225,0.29728483 -0.19883,0.1662215 0.51724,0.067657 0.76277,0.1505916 0.11311,0.038206 -0.24315,-0.046771 -0.3579,-0.01384 -0.409,0.1173701 -0.773,0.5360777 -1.19137,0.4584305 -0.26866,-0.049863 0.3926,-0.3801658 0.58889,-0.5702487 0.35405,0.1660238 0.67343,0.4556234 1.06216,0.4980715 3.37617,0.368661 0.12371,-0.89121802 2.97532,0.250141 0.32531,0.1302043 1.29968,0.4524772 0.94929,0.4515019 -4.96968,-0.013832 -4.85562,-2.12746224 -4.43475,0.8028042 0.48763,0.075957 0.97897,0.1310765 1.4629,0.2278716 0.73894,0.1478008 1.49074,0.7501615 2.20348,0.5054743 2.808555,-0.9641914 0.76053,-3.42345189 2.618428,-4.52661031 0.399928,-0.23746383 0.863144,-0.34685819 1.294714,-0.52028729 2.893806,-1.2618665 -0.50079,-0.120255 3.32639,0.02924 2.512512,0.098142 3.018628,-0.85138 4.895839,-2.446405 2.300941,-1.9550599 1.70543,-1.4223 3.491391,-3.6821858 0.219292,-0.6344007 0.287118,-1.3436555 0.657876,-1.9032024 0.197152,-0.2975433 2.45469,-1.5673496 2.596737,-1.6404556 0.74135,-0.381544 2.798863,-1.065651 3.188544,-1.998221 0.279268,-0.66834 -0.04118,-1.448096 -0.06177,-2.172145 1.420598,-1.269151 -0.279289,-0.0553 1.928919,-0.38911 0.3346,-0.05058 0.552042,-0.408015 0.870593,-0.522211 0.556728,-0.199578 1.209029,-0.12249 1.726517,-0.408814 0.829707,-0.459075 1.873475,-2.085476 2.382353,-2.790121 0.616239,-1.511678 0.310563,-1.468346 1.144585,-2.16674 0.242356,-0.202945 0.560366,-0.329022 0.747104,-0.584076 0.224401,-0.306494 0.301641,-0.697297 0.447768,-1.047927 0.390035,-0.935898 -0.112065,-0.07833 1.144098,-1.58317 0.266311,-0.02129 2.722337,-0.179487 3.041509,-0.346922 1.503963,-0.788964 1.208101,-1.63702 1.813957,-3.052996 1.471967,-3.440202 0.128424,1.059564 1.22755,-3.134148 0.343501,-0.261223 0.659839,-0.562671 1.0305,-0.783669 0.757674,-0.451745 1.704054,-0.454562 2.390965,-1.070536 0.919737,-0.824759 0.752695,-2.107097 1.318308,-3.090029 0.227491,-0.395343 0.663654,-0.625904 0.995481,-0.938853 0.123502,-0.198263 0.350422,-0.362072 0.370507,-0.594789 0.03376,-0.39117 -0.561824,-0.96538 -0.219292,-1.157279 1.211482,-0.678715 3.354535,1.814951 3.84761,1.937197 1.807766,0.448196 4.533509,-1.861124 5.572379,-2.531761 0.735121,-1.154179 1.715871,-2.184678 2.205363,-3.462541 0.297633,-0.776999 0.05191,-1.663301 0.0767,-2.494984 0.0084,-0.282342 -0.184047,-0.654825 0.02289,-0.847095 1.71249,-1.591143 1.705306,0.486402 3.439875,-0.637236 0.08924,-0.1095 1.267095,-1.3794 0.953635,-1.705128 -0.248648,-0.258379 -0.794129,0.428852 -1.059302,0.187465 -0.210976,-0.192053 0.269092,-0.535199 0.510802,-0.686766 1.494113,-0.9369 1.975231,-0.873244 3.5452,-1.117367 0.278127,-0.574135 0.590573,-1.132874 0.834376,-1.722403 0.184153,-0.445299 0.671516,-0.948801 0.446535,-1.374931 -0.230354,-0.436306 -1.056055,-0.106397 -1.41006,-0.450062 -0.166777,-0.161906 0.181306,-0.429223 0.296167,-0.631295 1.476968,-2.598375 0.927613,-2.985196 1.831567,-1.371402 0.270799,-0.246737 0.581817,-0.455525 0.812393,-0.740206 0.122478,-0.151218 0.142393,-0.36244 0.223835,-0.539173 0.150434,-0.326457 0.787307,-1.504157 0.84673,-1.595494 0.115432,-0.177432 0.352846,-0.273883 0.423074,-0.473569 0.121322,-0.344959 0.08447,-0.726448 0.126709,-1.089671 -0.424492,0.891961 -0.32236,2.409119 -1.273477,2.67588 -0.819591,0.229872 0.189715,-1.73355 0.59073,-2.484388 0.145206,-0.271878 0.720447,-0.536707 0.882907,-0.274772 0.169439,0.273185 -0.600641,1.096944 -0.571534,0.776798 0.09425,-1.036727 1.352658,-1.773005 0.990428,-2.961791 -0.296683,0.83729 -0.959496,1.626288 -0.890048,2.51187 0.03348,0.426937 0.722609,-0.470847 1.02644,-0.772644 0.287634,-0.285713 0.746996,-1.480794 0.938324,-1.65947 0.244798,-0.22861 0.719312,-0.107807 0.937334,-0.362082 0.326469,-0.380754 0.378574,-0.928931 0.567859,-1.393394 0.05198,0.0048 0.159568,0.06647 0.155927,0.01439 -0.05691,-0.813994 -0.560713,-0.600531 -0.01286,-1.546392 0.250553,-0.432581 0.523508,-0.940205 0.985962,-1.130041 3.211227,-1.318215 1.139516,1.723258 2.83192,-1.909122 -0.261474,-0.913003 0.163836,-2.791433 -0.784423,-2.739009 -0.947756,0.0524 -0.184349,3.713337 -0.470871,2.808409 -0.389123,-1.228984 -0.663827,-2.854229 0.136348,-3.864943 0.659172,-0.832609 2.193292,0.103563 3.170546,-0.312039 0.999168,-0.424918 3.636158,-4.2775 3.950888,-4.701985 0.249752,-0.992721 0.810069,-1.956313 0.749255,-2.97816 -0.05319,-0.893773 -0.889816,-1.586013 -1.073048,-2.462419 -0.108685,-0.519845 0.167978,-1.049155 0.228566,-1.576774 0.06492,-0.565324 -0.148373,-1.214821 0.147799,-1.70071 0.387418,-0.635587 1.348512,-0.765833 1.741134,-1.398217 0.144354,-0.232505 -0.543888,-0.06142 -0.815832,-0.09213 -0.362764,0.789877 -0.90825,1.519285 -1.088293,2.369632 -0.05045,0.238295 0.416481,-0.274899 0.655115,-0.323725 0.708742,-0.145013 1.86581,0.416464 1.860283,-1.125575 -0.0073,-2.027304 -1.951618,-2.387732 -0.02457,-1.798071 -0.101057,-0.729546 -0.104344,-0.02796 0.832269,-0.827384 0.41357,-0.352991 0.871144,-0.704935 1.114306,-1.191263 0.653145,-1.306298 -0.213486,-2.460736 -0.573959,-3.668151 -0.112064,-0.545383 -0.561153,-1.126842 -0.336193,-1.636149 0.245713,-0.556297 0.988157,-0.711803 1.510693,-1.022922 0.460408,-0.274129 0.923155,-0.562985 1.43248,-0.729451 0.993499,-0.324709 3.730993,-0.410085 4.328195,-1.620281 0.55824,-1.131239 0.170679,-2.517179 0.256018,-3.775769 2.9531148,-2.53124 6.5328302,1.64509 3.5797156,4.176332 z"
       inkscape:connector-curvature="0" />
  </g>
</svg>
